<mxfile host="app.diagrams.net" modified="2022-03-11T15:01:22.808Z" agent="5.0 (Windows NT 10.0; Win64; x64) AppleWebKit/537.36 (KHTML, like Gecko) Chrome/99.0.4844.51 Safari/537.36" etag="_C6H5G2DpV60GmbeC7j7" version="17.1.0" type="github">
  <diagram id="R2lEEEUBdFMjLlhIrx00" name="Page-1">
    <mxGraphModel dx="652" dy="887" grid="1" gridSize="10" guides="1" tooltips="1" connect="1" arrows="1" fold="1" page="1" pageScale="1" pageWidth="850" pageHeight="1100" math="0" shadow="0" extFonts="Permanent Marker^https://fonts.googleapis.com/css?family=Permanent+Marker">
      <root>
        <mxCell id="0" />
        <mxCell id="1" parent="0" />
        <mxCell id="It72JjRiq_UUshijpsOf-4" value="" style="edgeStyle=orthogonalEdgeStyle;rounded=0;orthogonalLoop=1;jettySize=auto;html=1;" edge="1" parent="1" source="It72JjRiq_UUshijpsOf-1" target="It72JjRiq_UUshijpsOf-3">
          <mxGeometry relative="1" as="geometry" />
        </mxCell>
        <mxCell id="It72JjRiq_UUshijpsOf-1" value="" style="shape=umlActor;verticalLabelPosition=bottom;verticalAlign=top;html=1;outlineConnect=0;" vertex="1" parent="1">
          <mxGeometry x="120" y="280" width="53.33" height="80" as="geometry" />
        </mxCell>
        <mxCell id="It72JjRiq_UUshijpsOf-2" value="&lt;font style=&quot;font-size: 10px&quot;&gt;localhost:3000/&lt;br&gt;GET&lt;/font&gt;" style="text;html=1;align=center;verticalAlign=middle;resizable=0;points=[];autosize=1;strokeColor=none;fillColor=none;" vertex="1" parent="1">
          <mxGeometry x="180" y="255" width="80" height="40" as="geometry" />
        </mxCell>
        <mxCell id="It72JjRiq_UUshijpsOf-6" style="edgeStyle=orthogonalEdgeStyle;rounded=0;orthogonalLoop=1;jettySize=auto;html=1;exitX=1;exitY=0.5;exitDx=0;exitDy=0;" edge="1" parent="1" source="It72JjRiq_UUshijpsOf-3" target="It72JjRiq_UUshijpsOf-5">
          <mxGeometry relative="1" as="geometry" />
        </mxCell>
        <mxCell id="It72JjRiq_UUshijpsOf-3" value="Requset" style="whiteSpace=wrap;html=1;verticalAlign=top;" vertex="1" parent="1">
          <mxGeometry x="240" y="305" width="80" height="30" as="geometry" />
        </mxCell>
        <mxCell id="It72JjRiq_UUshijpsOf-12" style="edgeStyle=orthogonalEdgeStyle;rounded=0;orthogonalLoop=1;jettySize=auto;html=1;exitX=0.75;exitY=1;exitDx=0;exitDy=0;entryX=1;entryY=0.5;entryDx=0;entryDy=0;fontSize=10;" edge="1" parent="1" source="It72JjRiq_UUshijpsOf-5" target="It72JjRiq_UUshijpsOf-8">
          <mxGeometry relative="1" as="geometry" />
        </mxCell>
        <mxCell id="It72JjRiq_UUshijpsOf-16" style="edgeStyle=orthogonalEdgeStyle;rounded=0;orthogonalLoop=1;jettySize=auto;html=1;fontSize=10;" edge="1" parent="1" source="It72JjRiq_UUshijpsOf-5" target="It72JjRiq_UUshijpsOf-15">
          <mxGeometry relative="1" as="geometry">
            <Array as="points">
              <mxPoint x="520" y="430" />
              <mxPoint x="280" y="430" />
            </Array>
          </mxGeometry>
        </mxCell>
        <mxCell id="It72JjRiq_UUshijpsOf-5" value="" style="shape=image;verticalLabelPosition=bottom;labelBackgroundColor=default;verticalAlign=top;aspect=fixed;imageAspect=0;image=data:image/png,iVBORw0KGgoAAAANSUhEUgAAAfUAAACRCAYAAADaWiHpAAAgAElEQVR4nO3dfVzNd//A8RfVIedUSnfkFDosYYnRT5jcrAlj2hpm2NxtbI0Z4cJlhsvtXLY2Npnb0cwwuxHmdjd2hYm50Cg35abIadSRnYrfH6d0d47uTkXX+/l4eKjv+X6+38/3VOf9/Xw+78/nW+O99967jxBCCCEeezWrugJCCCGEMA/L3C9WrVpVlfUQQgghRBkNHz4ckJa6EEIIUW1IUBdCCCGqCQnqQgghRDUhQV0IIYSoJiSoCyGEENWEBHUhhBCimpCgLoQQQlQTEtSFEEKIakKCuhBCCFFNmDGo2xPw5hJWb97Bjh2Gf99s+IzpL3iZ7xRVzWsk4ZHhjDR5SUoCw1azen4w1eiqhRBCPCbME9SV/oxfsZqwZ+xJ2DqTwb160WvoTNadgKdGzCd8VNWHOL8xw1jz9Xy+nqsp2wG8RhI+PxhPOzU+nU1cT4OudPRxweXJkcyYGYiy7NUVQgghSs2y+F2K48XIBWEEOieydUooK2NzNqccYevC06Rbr2B8/8mM//k1lsYWLmuJb/8gXunXihZuDigscjZnpHEt7hhfrY5i+/Gs8lcRaNOmFe4OkF6WwspAZs0IxlMBqdHLmBJR5EIMrn7PzNmuhuDvN5b5oxIINbWvEEIIYWblbqmrR71JnyYQu2lKXkB/QMfuxbuI1bvQcUBAwZdUXkxbP5MPQrvg654voANY21C/VRfGvVmoTJVQEjxjFO3sQX9+K7Nn7Ub3sN1jVzJl2RFSUeDZfzJhfpVVTyGEEP/ryhnU+zA20BPF1QOsiDQR6nRbiLsKymad8H+w0Y1pK0bS3c0ayEJ7cg+Lxs2ib7eJdOs2hVfHrWXV3li0aZnlq545dAtj0JNK0Mfz/eKVlKTdrds9k4hoHeBCwKjxMr4uhBCiUpSr+105pBvNlXpiv414SLDTcTpZR59GLngDhwDvdwfT3RUgi7jNCxm9XJtv/ywSTp7ki5Mn+cLY4Zw0jJseTPcnnFEpDPvrtRfZu/4rFm3Pf5werNjXk8Ij6KoOb7BvX6GN8TvpNmqPkZOpGTuwHUog+dA6Vl40eZFFHFi8hb4bhuLVoCPDei9l6g8lLyuEEEKURTmCupIXfJug0J/n8HpDK92+93Tmv+qPWgnodOhqKkna2YspyVrAFXU3YJ+GIZ2cAUg/vokJBQJ6MZr3YMXinmisC16CwkFD0LgwmjYofINQTr6DaNcQ0Mey/5MjpSur+5LI6OeY1dme5t2Hovxh3cO77YUQQohyKkdQf47WTRRw+TTfAfiFseRNf1xyX1YqUaJDGw86T33e2bq0oakdQBqnomJKkbjmwKR/GAK6PimGL5Zu5YvDGajUHjz/xgBe6eCMJmQkkw4sZNEZgD2M7pbX+h4TsZgQT0j/7VP6Tosr0Rl9nmmOC6A/f5wtZYjIR/adIbWzP/Ze7RjEOlaW/hBCCCFEiZV9TL2zBhcFJCccQYeSoQMMAT316DIG95rDoVQALcnRuQWUOHgAXi44YHgt4ce8w3WfO5N9+xYX/LdtMN1zd+j3HJ3dgPSTfD56A18czgAgPfESX0xbwufHMwBnWge7lfmSCmvnZrhFSb24v2yt7OjTJGQAuKIONFu1hBBCCKPKHtS9XLBHT2riCR602vWx7FrwPam4oqwNZGhJKhwNc8+YfpurpThd57aNUAHpp6PZXKR5n8Xmc9cBqN+oeRkuxpgA1M4AOhJiE8t4jF0kJsODGxohhBCiApW5+93HXgVkkpYM9PehiQK4GGfopla64mANJKcS/6CEoSueJ3K+VdnSIN/x9k6bxd7cb8aEsi+kYBRs6WRjKNZ+ZNFEtwqhyPuyzFPldejvGb5ycPXHkCYohBBCVIwyt9TtrVU86F53VKEAdMmnDd3Ufjld7Le1nCD3BiDHRW3OOLoNDk+V4oRmWCandFQoFMXvJYQQQjwqyhkq9eh1ENDAFQBtck6GuKcDSkCnjcv51h5INtwA1EgmaRJocMC3txscvVKiM529ngaeNqVKdCsfLXo9YI1Zbii0SdJKF0IIUbHM+pQ2hcKQAtenUf4g3w7vBgq4lcRpHZB+gJ/OGPqzHToEM6aEQ+B7Y5PRAypNG8q0SFtOF7rC2qaEBY6QnAqgxN1LXZYzAoGo6wHo0F4q4yGEEEKIEipnUFegUEJ8qqFD3b5BO+wDZzHI1/AoE5W9N/YvBOPjCPpLJzgAQBZffLyHOD2g8CDko5msmORLZ3VOc1hlg7fKSNN4WzSn0gGn9szaOIwxvZ1xz+nVV6mdCRoSzMcb32HWM8Zr+p/LhvnritZ9+WCIx4Oypun49WIyAC7Nni3bw1l8W+NuB+gTObO7LAcQQgghSq7MHcuGQO6Aix8kxiehwwXlkyPZ8CSgSya5pgsunWexoTNAMge2bc0rfGYPEz605bNx/tRX2KAJGsysoGJOmB7DzOXerJnki4NrK0LebUXIu4V3SiPaWFkgZuOvxHV+Do3CBt/XQlnzWv6LMb6i3ImD8aQGuGDfpB3DGq1kWSlWlANo19PnwTz370pXVAghhCi1MrfUE2+kokeJQ2Pgh2VEHk01vJCRzIGIt1ib+312KrGRC1hYKNqmR21l8JB/s+pgHNdu5U8vz0J/6zoJRw+yfN7WvIx4ID1qA69OWEvUyeuk6/O9oM9Am3CSqGUrWZRv7nsBFw4yYcpX/HxBiz67hBcZvZZfLwOo6TioXQkL5VAGE9zGHtBxZq+sJieEEKLi1XjvvffuA6xatap0JRuNZ/WyQOz/WMnzU7YWv/9jStl/HmtG+aDUJ/L9lNdZVsInqbYLW82sABf057cS+tZKyjrTXQghhCjO8OHDgfKMqV/cwpHLoPBsR3CZBpwfD7ptc9gSqweFmsC3x5boiWvKwFmMD3ABkjnwsQR0IYQQlaMciXKJrN0fi17pwwsTA8uWSPZY0PHljGUcSQVFoz7MmFnMtXqNZP7YdtijJ37bApaWsGUvhBBClFe5st91kTNYFp2Kvd9YPp45EP+GOeHO0RP//uNZsvozpnczRzWrmG43M2dvJV6P4VrH+5vYMYDpM4LxVEBq9DKmREhEF0IIUXnKuayKjt2zRpM84B3G9h3I9BVDDZuz9ejTU0mMPcLh8+Wv5CMhdiVTFqhY8pYnR3aaWkjmCIfPptLcIpK3Zu2W5DghhBCVquyJckIIIYR4JJQ/UU4IIYQQjxQJ6kIIIUQ1IUFdCCGEqCYkqAshhBDVhAR1IYQQopqQoC6EEEJUExLUhRBCiGpCgroQQghRTUhQF0IIIaoJCepCCCFENVHOtd9FHg3ztr2Bn12hzbdimNt/A3tNFRsTyr4QjyKb4zZPZPRyc9fRGC9GfjwbnxMzCDXxABqvIUuY0SGBTyYt5ZAsaF9GzbAPH4G7qzWZSfuJC92GvqqrZCbKDmOZPborTRyVKCxAF72QkFkHqrpaQvxPegxb6m6MWfgOX+/8B/Oeqeq6PO68GPnxfIKbKFH7dDLxrHgfunVogn2jQMIWjCzR8+QfF5bDRuAR8QGayc0q/mRPd8DJ1ZoagMK1LbZPV/wpK0W36ayY0QcvF0NAF0JUrcewpd4c36fccCCt+F1zW8HxO+k2ao+RHfJa1+VvGccxtf/EoucuzvJwuj04r4nWfoVQEjhzBsFNFJB6hGWTV2K8nX6CZZOW4bJiPO2aBDNjZgKjq8kT6Gq39MG+LtypjJP99Bs3QrxzWuq/c/unyjhpxRvY5ynsAVJPsO7jZXz3W2K1+N0Q4nH1GAZ1YQ7K/tMZ5WcP+ni2zp7J7od9Eut2M3O2O+Hzg/H0G8vsQb8yIVI+ukvnLKmhk0mt6mqYlT8aFwWg58TXU/nyt6qujxDiMex+F+UXQNhLPijRE//DQlYab6IXFLuShT/Eo0eBV/B0gpUVXknxyFNgVRMgkfhtVV0XIQSYq6Wu8mD41L70auuBg8LEPka6wFWt2zMptAd+7g6G8bjsLNKvnOGblRtY9UtW3o5Gu7Jt8Ju6mH1TC241X4KZJb4vBzMuuA3uDjlvkz6NhD8O8Pn7B/k53RznKA9ruo8bzPAADfXt8up37c9jfPXpd2w/Y7qk+s1BtLMDkg+xLiKxxGdMjFjHIf9ZBLj48OyrarZ+UnxZ9aB5LHnZB2XqIZaOmfPwHoGyqtcM2/Eh1Pd0wdrKsClbl8yNw99zY+0Jsh+c81kabu6NY6HidZ56i9abC228+APHJ+3K+/7pYTQLbUud3O2deuM2rBuOda2oQSZ3r/zBpU/WknEu/0Ga4fj5WzS0LXTs279zesRaE4lyuWUuEheyhIy+L+P2XFvs61pRA8j66ywJaz/n9i8Zxt4Iao8NoUH7ptgoDfsX8dBzCyEed+Vvqau8mLcmlFc6PCSgGysW9BJrFr1E58YOeQk2Fpao3FvxyvvTmBdUlSMDlgS9H8YHI9vnBXQAhQ3uTz3HrDWDCVJVXe1QeTFt40ym9fPKC+gAChvqt+rCuH+HMc3k++fDoKfUgJ7YfZ9wpFQnPsIn+2LRA2q/YbQrdn8fBgX6oLQAHP0Z9KZPqc5WIk2fpWH4WzTxygvoABZKF1y7jqD+i2Y+X11XrIdPoOW4Z3Gqmxs4rajt1pZmYS9Tij+BYjhQd/Y0mg/5Pxzq5gVoy7rNaDJuAnZNC+9fD9Wif+DV1RtbUwFdCFHtlTty+r0bjJ8DoL9CVPhaPv9Bi9bJgaBXhzEuyA0FWvZO+xdz84+3qXyZNaY9DhaQ/ucelv9rD1GJWTg80Yoh41+i3xM2+I0ZTMjPa9mcTqFksh6s2NcTDWlEz5vF1B/LewVFqV4czJhODkAGcds3MOfzWBLSrdH07kLY6z3QOPgy5v3T/DwhhspvsFsSNH0A3V0tQX+d6A2bWL7tUsH6qZzpPqQve6K2El24uO+zNHcB9Oc5vrX0zWbd1uOcf8ELL8fmPNsZjvxsjmsqu9oDu+FoBVlX9hMXvpO78RmANTU6eFO3Vx9q3cu/9y4uh+zics53qkUfoWkEd45+zNkFZ0t2wrptaRYEZCRzeftaUrZchmeH0WxkW+rUbYvTCxu5siV357OkjHiblNxvh02gdZ9GJbwyWxy9bCEzmYT14WijbkOn/niM7Yq9lQsuzzfj1qJ8dR4wiMaNrIDbJH25kuSdF7mPLZY9Q2gy0Ic6ZHLjy8lc2ZJl8oylZ75bGCGEeZSzpe5GjyccAEj4IZxFP2jRAtzQErUonKgLAA54+9sUKOU+IgBfFXDlIFPG7CQq0fBBo/3zJB+O+TdRVwBVc7r0L1/tHvDsyb59i438M5ZpbsOIPq1QAdd++DejP4wlIR0gg7gfdjJ68kGuASpvP543U/VKpXEPBrS3ATKIWbmEqesvGa0frr681M9I+TZqXABSEthflq5w3X4SUgDsUbcobmD9BJG7T6DLBlIOEfnJiTKc8OEsba0N1Tr7U05AB8jg/m+/kzpjFknrzX5KyLhI/Oy5hoAOsGsDVy8CWKFsYsbpcZkXiZs51xDQAX7ZxrUThq/rODcusGsdn8ZYABkxG0nacpH7OkB3m6wtn3Mx5jZghV0rM/aUOHoSOP4FfOyA5ETM/5MVQpRFBSbKWaMwcSPf28sNgITDUZwu8qqWYwlpgCXuXpqKq55JbWjhDnCFw59pi7585gwJtwCFCy2qYp58YFPcAW6c5KuvjbS6zkRx+AKANa4t3Yq8HNDQFQDd1dOUfDQ9v0ROXzXcDTi4FN8Bnxg5lZDnetFraMWMp9+9fJP7gF3XMNwndMbSraKHbZJJmL2E9AJj51noU3ICrxn/orR7Pip0HtAnGfmdLEZNhVXxO5VUt1ls3rGDHevCGR+ohtRYvvx3aYdxhBAVpZyfgFf47+UMurta4947lEnnc7vf3QgZ/RLd3QC0xB3KP6dcg6uT4Sv3/vPZZ67W+MOUYJ76A11cMPQ9uNHv28UYa+xWJV/HnF6P29qiXesAZPHfpDT6NbbBpo51kVcf5C9klz1VSp9t+F/poAGqduWwrA8/5pxLGE2bWuPQIQSHDiFk/XWZlJi9pGz6nayb5j5jBpnnim7VL5jOcTOf6V52ybvKM84nc79pQ6x9X8b1hbzud0Xwy7i3sAYyuXXG/O1pBVaoZCaEEI+Mcjdrti/aQ++Nz6FRuBH07j8Ierfg69rftrKo0PzVR3rlKYXVIz1SqKpVvlaXypyttkfCTe78YzInOnXFsY8/jo1cqF23Ia5dh+H6dB+ubPyYG9+aPbI/cu6v/IYrfm/RsK4trgMn4Dqw4OtZF3eTtMkM4+n7ZhKyD5QNAxk2aRR9mnrSZ8w7HPltjrTWhXgElDOoWxIytQcaiyyu/XmFWo3zMuD12ktEb93Eoo3XCyWTxZGQgplWcasAPyaTNBU0XGJzt3Aeter9fE0L2IDSFl8gpsgelrR0NbTm07TJRV7VZmQCCrAo/62LThtX7mOYzS/7SfllPylYUqNrZxxD+uDmVA+3gSGkf/spxiaAVScWr4fgVhfuJJwlq17jB1PasnXJ3PhlM0krS5gIWEK6y7tZNs4BzTdD8XL0pGMjOHLRrKcQQpRB+YK6KoBnWlvDrRi+GLOBqBIW+89FLSGeDri39EfFoVJmkGfm/G+JokKWUz3DpaSeaFzdaPGaJaw2Z7awGRy5wrUQD+q7tuKloG+JiSpUvw59ad8Yig575BRP1gJKlA28UbO7DOPqSrxdDP2t2uTi22aVMk+9gCzu79/PjcMKrNf0xsGqIcoOkGFstbOcYQRLaxsjLz5OmmHf3oUaXCbpnx9zu9IW+0siLQNQqLBvAkhQF6LKlS+tx8sWJYCdhh5DNPg+5YbGqfhiMVtPcg1QNA9m4/LnCOnikDOODQ5PaAgZN5g1X7/BGKOl47iUBGCN78BhvNLJBvNOGb/Ctt+vA5Z4D5nJikm+dH4id2zaGk0XX8bNDeXrT7qY9awldvRHDicA2OA3bgLzhnjgrjLUze/FYNZM96c+oP/zVz43Esh00fEkAzTw5NkyjYU+h6YBQDLx0cVFj4qep94Mh6XTcB3XmdpP1svbXK8etYf5YAuQmcQdE8uXZlwzdMsrWvTH9YVG1Hhsx4ZdqGVt+N9+mA8WTzbEosITBoUQj6Ly/eUfPcDhBH/6udvg+9ob+BZ+PTuL9Btx7P18Ax/uzdcBeuY75m5uxJIQD1RPdGHMzC5GAvglE4lgV1h/8BKdB3igcGjF8PdbMTzfq+bo0j/9wUo2e4UR4mmNJmgws4KM7BRfaMm2Zwbz7VTfojcYdr5M2+fLNBP1GxOxmBDPoofXhCxmX0jONwUe35rGhwt20mJxTzTWzvi9Forfa4UK3zjMh5MOkmDs4mL2E58SgIujJ+1eVbOyBKvC5acc0p4mCiAlnv1F+/4rXU0bF1w7heDaydirmaTsijT5wJbsbT+R4tcfRysj49CFV5Qri9xV6Apvt22L9+a2D75N+f5tLq8tz4l+4+aZZ3F80hb7riOw71r49Uz0f10haccGtNuKDskIIaqPck7A0fLj7tic7vMs9BkZ6DPydQdbWKJy9aLftLAiK8SdXh7Oy3O/I/qC9kE2NQAZaVz7M4bNi9ZgaopxwmfLmbryMAnaiuoa17J81CzmboopdI4s9LeuE/fbdyx6vwqzvs/sYfSrn7L95HXS8yexp1/ndNRa3h3xFVEmxzSOsDbaEMhLtipcfl6M6uKFAkiMXluCxKiKnqd+lpTV27gcn0xGRib3c7bez84kPeF34j6czuW1D0mSS9jP5bkbSUi4WfB38LGTxd1dJ7idcw1ZGRno870fYIWibiPcXw6j4bB6Jo4hhKgOarz33nv3AVatWlX60s+8xNdT2+NAGtEfLmTq9oLpSA7t/Zk2NRhfO9Cf2UrPNw+ZpdKinJTBzFszEh+lnsRvp/D6pyV5ogsoBy1hwxAvFLeOsHDQzCqezCYecO9Kw/n9cbTKJCVqIZdXFWqNu3ljP2UEHq5WcONnTo7djHnuYQKYFRlGOzsdRxaHMHOfWQ4qhCiD4cMNfdblaql3D2huGAtPiGbR9qL5xdrDh0nIWStDUbO6TaV6jOm2MmdrLHoUqHu+w1ivEpTxGsn8AV4o0HHiq4US0B8lXX1xtAJ0p0kpHNABrpxGdy3n79PKnOvCp6K7C2CFjdtjm5AgRLVSrqD+oMvSvSPzx7XCW53Xxe7wRCvGLJxAUGOALOL+OFaeUwkz00XOYFl0KijU9Jkxi8CHfSYrA5k1IxhPBaRGRzBnmzxL/ZFyD0NXu9Kb+pM7o/DMt+iQWyOsx06gsa/hUXF34o5ivkGrEzmrCyrwemEJ4wPVSGgXomqVr/u9eQ9W/LsnmmKmPKef2cqUNw8ZWRJWVC0vRn48n+AmCvRXd7Nw5FKKDpCoGflhOMFNFejPb2XKWyspWWe9qDRKbxyXvkHDug/fLevGz5ydtBm9Oe/JvEYSPt9ww5dLF72QkFnSlyNEZcrtfrcICAh4DyAmpgypzCnn+W7Xeeo0dKK+owprq3wNf30G2iuxHFi3lqkfxHLFLNUW5pXCsYMJOLVvhcXRVaw4lmJkn9vcUXekU61DvD/5M05lGtlFVK3MG9zZd4y/7BxR1FNhYWlFzZw/xfvZmdy9GU/y3kguzvuZbHP//FKO8dPpbBpq3HGxscaiJmRe+ZXNB2XSuhCVydfXMP+sfC11IYQQQlQ5syTKCSGEEOLRIUFdCCGEqCbKHNSbNGlC/fr1zVkXIYQQQpSDtNSFEEKIakKCuhBCCFFNSFAXQgghqgkJ6kIIIUQ1IUFdCCGEqCYkqAshhBDVhGXxuwhROrav7MS7CaQfXsB/d+4vwxG6Um/kO3g2UJB5dT+nVy7gb7PXUjxeRmG/eBIeLrXITN7JuYmvo6/qKonyeWYw3071RVVoc/pvn9J3WpyJQhrmbXsDP7tCm2/FMLf/BvZWQDULUwbOYsUrsHbMTHYbe46CMpCwDwdhH7WAqVsq/0kZ0lJ/CLeGY5gX8imRQYOquipVrB22fSLwnhKJS4NKOF2DbtRvoKAmUKtBe+pWxjnFo61jN5xcalEDULj4Y9uxqiv0+HB/MZgVG2ezb3mPqq7KY08ZOIsV49th76ihY0fjzyR0CeiITwMXfEbMYNZDH39ZMaSl/hAejXxoVK8OFH1U/P+Y1tRro8YWHTcr43RX93Htqk9OS/0wf12tjJNWA3X6UXvwq7j6tMDWrhYWANl/k5GaSEr0WlK+XFfVNSy7X/dxo39b6rjUIjP5ELd/reoKPT6a+rZC42oNxT6dL7cVnEb0vFlM/dHILmNC2RfiYZ6W8Y8b6PvjhrxDRywmxLO4QnFM7T+xaH0qg9dI5o9thz164rfNZqbRZjok/zCT2Q3Cmd/fk3Zj5zMyIZSVldhgl6AuHkH7ublyf+XcQFQXnrNxCxuKc51C2y1qYe2oQd17NtY115G4sUpqZwYRpE6MILWqqyH+R3kxfqLhEcOp0cuYEvHwKB0bMYVlDVYw3s+T4MlhnHhtIUcqqabS/S7EY0+NckhOQM+8QeKWGRwf50HMEA9iXh/EH59vIvHybe5VdTWFeEypR71JQAPg1hEiZu0uvtMDHbtnRXDkFuASwNi3vSq8jrkeq5b6K33W0bvhHY5veYMFN73p7z+UPs0bUMcCyLzFxf+sZfapo9wpUtIO/5bjGNDaA2eVlWGT/hYXj29n1bE9nHuwXwcmDx5Da5tCxRsGEflGUMFtaScI3/ABh3K/bz6byC4eRbcXOG5O3W/keymn3J3/LmfELydo0XgMr3X2wa0OcC+TvxIPsmrXOo7k+0TO/z6EZw9lSnd/mtrXMdyi3bnK8Z/XEX7htJH3oRTafML/9SncF6ak8cidNC60Nfn7nlw4VvQQGSmHoe4gXJ5/EfeGSixqQnZ6IgnfLyH57JlCe3fF5e3JNK5baPNfR4j5aMbDE+UUXanbZxjqZq4oFYZN2elJJB3ewtVD35Ftrmj25ETsg57HUeOMsrZhfPd+9t/orh3i8roZZJxJLLh/x0iaveGP8vJ2YqZuo/ao6ajba1DWhhqA7vJOEha9zl1t/kKjcFw2HbVNIvGvd0LX4TNc+3elXk53evatOBK3vU3q3lP5yoTikPOjurm/Pynf5KvHnUNkHzhEyoEw09fVfDr1hg7Atb4tCgsMXfbXT3F509uk/55YZHfV3Es0db9N4qetSInph/Ubk2j0pJraFnA/8zY39i/iyvq8rv7ak8/SvGUtSNnPH++8SraRKtT+x1maN69Fdvw6/nhvRqH3otDOaYc4NXZQ8YlyzSdi/+JAXBo7YZ3zZ591K45rv5gaimiBYtgi1H4abGwMP9/su7e5eXgFSRHhRutdVqpOXZj2Wkd83R0M77kRcZsnMnp5/i3WdB83mOEBGurb5Xx0Z2iJO/AdSxed5PSD/Uwkk3n2ZN++ngW3mTPBzEnDuOnBdH/CGZUCIAu99iJ713/Fou3a4kpXOFXr9kwK7YHfg/c8C732CjE7v2XuykukmyzZh7GBnijQE/vtQg6U+IwHWPhtXzYM8cKl8zD6fDSV74sto2bg/CUMfVJJ6m9LGT27JDcQBT2GLfU61HXuweQBU3ipZU5AB7Cyo1HnMcxoVjirSsMrQUsI7aTJC+gACjsatR/KjD6DaFpZVX+IOjZNCey8gOnP5gR0gJpW1PXoQeizg3ArWoIGrf9J+Is9aFqvTt5Psk4DWj/7NhMaFu6HrQLOE/B+axiN3Q0BHcBCpabxwDnUdzNTAolqFI3HT8arZV5AN5zHFbdub+Le2jyngYWoJ4XSqKUaVU5AB6hhUQtVw654Td6Gva+JonYaHOd+RvOnNahyAjqAsmFPvN6PRGG8EMo39uL9ak+cc8fHAQs7DY1e/RJHE4lilrU1pbuspyNpOnkU7g1t84KLRS2s67eh6fgdOD6tNlHQFusmoTgv/AgvX0NAB6hhZZluhPsAABbuSURBVItz4HTUA/0f7Hl39yHDB6ZjS2xbGjvWROo2rgXAzZMrSld/Eyxe2IHXP0Jp1CwvoANY2mlQ9x5WJOMauqJ6fxvePVpga5P387WobYvz0xPxnrsQE7G31FRBg1nz/nP4NTYd0ItyYMzyfzCtn1deQAewdkATNIwlET3wNlP9yqR5D1aseYN+rXIDOoAlCgcNQePCWDHGoSprh/drb7BxyUt0LvCeW6Jw8MDv5VA2fuJv+v0b1I3mSiDlKJGRpQuxushIjqYAyuZ0G1KCzzzfQTz7pGE/+w6DeNPUZ8pDPFYt9VyNOg6FmnDn0h7W7/2aA1mNeK3XuwQ2tKJR6360OLuc3HZMU58x9PawAv0Njh9cx6fxJ7hVswHtGg/ilS4+ODcM4i2fI4w7EQf8xoINvz04j3+nTwltWQcuRzHo+8iKvSh1D16rCaRdYvePy9l0/S8at5jK5M4eWHk8RX+bSD5OK1jE2VMD9+5w7sByPog9QaZNPyb0eYEWdnVo0aofXC5HnY+9yX8etL5H0fifL+CCjgsrXyC5hIlrTk91hHs6kneu4NLRXdxTPEf9kW/i4aCkYYe+XPs6f/32k/zRfpJzvzXaU1CUdUBPXGpDZsIuTn+9hoz0VMCemi5dse8YQu2sEl9xse6lJXIt5hu0Bw+hP3sIaEGNgLfxGNoTeysn1P2mkxozp2hBmxaobSAr5RDnV89B98dtLPp+hGdIG5R2/jQY5s/FtYcKFbLF1dfW0J3+7SJSvtkEzafj+uYo6tvZ0rDfR9z89W3uA/ANqReex7FxLeye/gx3FpG4IYL7xXXV1JmI62B/VBaQcWE755cvQn8tERqHYvvaaJo0tkU9+CPSj/bnrpFj1QucSA3ylb3VBttpi/B0r4Wj32iufnnI0LqN2UZKSldUjk44PN2P1P9uL3ignh2pVxu4c4ybW/L3DESQMjaClNxvX96Lb1AJblp819Do+RZYA1kpx7iwbRHpPx2COv5YtH+een2K3sZbjJiNpnEtauR/v+v4YxkYintff+zcB6AeEcXFz8syRTM/Nya96osDoE84yIfz9hD1ZwYOT7RixNTBBLlbQtIhpr68leh8pbzfHUnIE9agv070hg0sWn8FrcqGzv378sZgX+p79mTau8cY/IGWwslk3efOZFoHG4jfSbdRe8pZf2McmPSPnmisQZ8UwxdLt/LF4QxUag+ef2MAr3RwRhMykkkHFrKocAddZWjeg7ABGlRA+p97WL70IFF/Fqyfqnlfxg45zFvri35gDGzXBAWQemZXGcbFj7DrTCr+ne3xemoQrF9Z/uspxmPYUgdqwl/HPyc0ah0H9Hfg3mlWR+d0N9dtQN7NTQ8G+DgBdzi1ewYL4k9wC+DeVY7Ef8DUvafJBJyfeIYWVXIh+dQE/jrKZ5EzWH39Kne4w6lTOziVBuCEm7Gn3N67xfFvJvDPWMN13UnbzpLjlwyvOTTA30iRSnUvlUtfjOTC4V3cuwfc/Y5rh+K5B1g08KaWGU5hVddwV5sWtzMnoAOkci95Kze3DuLKH2Y4CQBhXBnbiaSIxTkBHeAU9w+8zsX9hkBk4djC5F1yVsImTr8zCN0fp4BEsr/tz/nDhnGYus2eN14oM45zc58yBBiAM3NI+nw/6UCN+i1QPuiMOUT6/EUkagFqUe/p6fgsO0mjyZ9h/aTp3+waIc/jWgfuJ+/k3D/fNgR0gAvh3P7n21xKBuq0oV6gifJA+u9ziM0te2c7t3f8bugudFRj/WDP7fx1PJH7gG3T/kVavLXbtEAB6P7cwV2TtS0pNcp+XbEFsi9v5/Q7/Q0BHXKGIsK4PrF/oa7WUOq1V1ODv7n2Vf+89/vOIbK+GcT5LafQA/Yth5W/tf6UHxongCtEvfUdUX8aptZo/zzJorf2kADgquHpAmNcrRjRxRnIIGblEqauv4IWID2Nn9dv4PXVseiB+m0DKEPDzggb/KYuZt8+I/+MZZr3e47ObkD6ST4fvYEvDhuuKT3xEl9MW8LnxzMAZ1oHF+1vrAz9XuuCuwK4cpApY3Y+eM8L1s8S7+49cC9S2h+NiwLQkxBbtlS3I7EJhqEiZzUm/pTyxESy6w9Db0Dqb5F8ElP68z2WQT3zXCTv/udgwTHjG1e5DgWvyMHb0JWdfo5fLhdtaty5dIkrAA4NzPTHUA4Zp/niq484UGD89zeu3Mr50sinyZ0zX7PgesHrupPyV/nG0s1Id2wN1y4WyldO0pq1fhlXkrgHOATMwbPbIKxqV/68ULJzRvxrmvqDiuPCtLAiY7JZ5xLRAzXs1Ua74FP2dCc9vtDGmP+SdhfAmdr5f2nvRJAyrhenfjhG6h2oYWGLfcueeE3aQYsPd2DboWhwV3qqqQFoT8wxMl68H93V24b9mowyelX6MxGcWxpRcOOviUZngN7ffMgwm6FIF3xu1/sNbu6PMFKytIZR1x3gb5L2vF2ycfD2/tStA6T9jnZn0RwCfvgvt6HQjUoFcLLGytj2Ls3xUAG3YtnzddGWZPqmizk3A278X0XWz4TObRsZWsGno9lcZGA6i83nrgNQv1Hzyq4aoKFNE2sgi9P7ovLlHeTKYvOPsYabPNdGPF3kdW9c7AGSSdxdxirsTjT0QNo5GLlpKCyRL6eE0KtXLwaXYTwdHtPu98y/jQWuSKZ+Wqi72dGJugAqH15/Yx2vV0rtyigrk1QjCV1ffD+UL0yVuf9or6l1/17F1y9z/wJO15uDt7cSp07DcOo0jMyURJL+iOL64a1kmrMKuYlX7k7Uzjc2XmZpd8kEFLXtsIISrpB2i6xMoLYttZwKv3YK/Zf9ufilmktPh1KvRzdcGjuhcGiB59htpDR+ncSNud3HQ6mdM8xZL/AXk63xh8m8m2xkaxiJQ8IoEhrvhKONH4CjZ6Eu+Oe74Vwb7l87hLYMrZIi2rdAaQWQyJ2SZn81caYOgI0/LdZfMkMlHuLoOZLS/amvciPo4+c4m9v93t6XMWM7Uh/gxkV+upCvjJcLDgB2vkza58ukiq0hUIJ56vm0dDJkMqraj2TfvgqvXCk5U08FkEHaZRNjcVHJJE0CjcKKwjmZKBU5N9x69GWJsAA6fc7ftgOunYGfy3icEnosg3qJmSuzRTzCzpD+9QscdhmFS9eOuDZxxdpRjbrbaNQBIVz66n2uFcm0L4OnI2k2yp8K6Qe4e4vMUhe6TabJhOJE7v8URspPkOIQSr0Zobg71sKxx3RSf9pP+mWAWpXcT5eI7udj3PVsk9MFv51sQNm6BRZAyvFFOfkB5WS0qVuMmma4QSuxk8z94RJfD/BA4d6FScu7FArSaUSvKTie/sj3pz7SUcQKhfFM1JJxUphIZH10PdI/jnJL+Ys7eFDH6DSzyqSozE+N/03JESR/GUEySmq6vYxL0HN4NLDH4/nR3Fr4Tjm7/P2x62MI6PfvxHE+cg63D+RLmCppAldhHjktxL//Lvl0qTpNsbYB+PshQT0fbTg3P2iJzbye2FtpsHuKnKAewd3U6WADKVEelbMozd593HypDW6OLanrCzdjphu6yjNPof3GSLd3WfyaSMYboMQOq5bAf0tQ5tJ1dGhQlnSqXHmofJnW2wP014m7Yol77vSq7Cy0Ccf4JnwrXxwv1KKM05KOB6pKXN+8NM5eTwNPm2LWbK8qV7h5CzR21ti4mtglyAVXgIzbeUmZuS6mkw64oEChpASr8j2MlqQKbqXDo38PWD434riSCdg04v8Kz38ugcysnPaToo6RKWWF6DMNrS1LK+wLvKDhlaChtC46h+bxcg/ACsvaVV2R4ui4dyWCa6t2cQOgtis2zqb2VRIYtppvduxgx5bVhJlcp/l5bHMSFbW/vFowoANYlSXlryt2bTSG+eqJv5Y4qFsM8qceQNo5dCUJWAUUbN1nXDEk6tk3m13aA5VRONr/3gCcqNuhHzzvTz0ruPtnFDqzJVr8SnoKgBOufScWt3NOkVPoMgGbptiUMbnGa8gSNn+3gx3fbWbJENMLjaiGdMJXBenHv2X0iH/R85mJdOs2kW7PTOHFEV8VDegAP14gQQ/YefB0h9LXTZ/7y1XbugRjuqW3NzYZPaDStMGvAo5fPnGcupoFWKIJMDbtz5JX+rRCBegvniOqyOsJaG8BuKAuwxAVAIFqw03DLa0h9+Gh1Aycv5kdO3awI3IJQ8uwZk31Dur8SHT8HcCOdsEfMN2rC00VOSnDNRvQtH4/3ur+AYvbG/9LOXLjhiFQO/vzTpsuNHpY1971G4YlLK2bEti2A3ZAHUUXRvedaphS91g7zO0UAAVuvRagqmdq7nJl64rTq2tQdxuEdd18098Unlj7tzbkU+iT0F03UVw5iOcCXAzda9YuBLw4DONXdo6/c6YT2rWajsIBQE2NthOxf/8krXsU937YUTugJzVys9Ubh2L7/kc0dgEy47j6lfEEsdrOoVjUzzm2Q1dqD9tL0wBDclvKL+F5LcqOa2j07x3Uez4Ui8b5EuLq+GMRsJD6k3oabjTvxHH7p7yXs3f9Tipg4TkUr/c/w7p917wXGw/Felgk7h/vMDKnu+yythnOadu0PypvDRb8zc2j4WY8Q16mfe3moYbraps7D6QFNQIW4rx4W6FrWsvNuL8BJ9xDj+I8MN/7Xscfi4DZ1JtxlEahxhMGIYBBvbxQWgAWSrz6DqOPiT2bOuSMP2v8eKWLG75POVD8DO7DHDydATjQeWYYH7zeCm91Tierygbv3v5M+zCMNTON9xb9fM4QdHHryPuTWuVk35vRtmhOpQNO7Zm1cRhjejvjnvMGq9TOBA0J5uON7zDrGTOft4S+2H2GdEDRuCfzl/ck6AnrnLp5MebDMIY3twTSiP7mkJEFaHZz5poeUKB5MqBM5/dp7Y4S0F87Q/G5ds/SMWeeOnZeBI8eWOrzVe/ud+7ww0+RtKw/gtZ2TrQIGMH7ASOK7mWqxRP/I8fba2hnZ4Vb+xHMa5+vbOEu/bTtHLn0FL09rHBuN4ZP243J2/evE5zK8KGFsWlpj4UTpB6KJ/N5T6wcfGj5ZsEgZGpFuVJpMJuWI9sVDSB12+H7z50mz1XT1hW3TsNw6zTMyEH1JO9eYXqlqMLjZTVNjZ5F8NfZt2nQ1hbL+j1p8WHBZKr7abe5a2OL6U4MJ9QjPkNd5FfvNte2zMnpDi9K1XYiT7Yt2trUnYng6sb8g0m1UDi2wP2FFri/YKJ1mn2DxA1vF5wyFv86iVF7sQnSYN24J16hPY0UjMOsa4FdXkvqtZ7Y1/dHXacWaPejNdWfnLsiX+HthRLaCg8f3F87g3ONP6Kpp63husYXvq64fKtIAiRyd+kiEhdOR23nhFvvibj1NvK+m0zkU6HI/0laE5PjsDFbj5EQ0AN3h1YMn9mq6A76NK79Gc2qOTvZ+2DlySw2/3MDbdaMxM/BGd8Bw/h4QNGi6b8V3QbA+j1E99PQ2cES96BhrMi/OKY5uvTTY5i53Js1k3xxcG1FyLutCHm38E5pBfMEyDd/vhBVhzfyJdxdYnO3cB4srGfica3Y+TJtny/Tcr4tsBrf9g0sbxvGpE4OqJ7owaTlPQrlMWQQtzmcmcYSA4HvYs4z0MsLZctn6cOBEqwKl187nmvpAug5H/NdCfZPIl0Hub/0ivrNCYBSrGJX7VvqwL2DLNg0n9WH47ieni8d6V4mmX9d5dThSMKjTf01/MaSr5ez+9wN7hSbyXSVL3YtZ/elW2TmZrFn3+LKsS3M+eoDLppzjckqcO+PMI5v+pUbKXrzLbtabvtJ3rSFC2eT0N3lwdrm97L03D5/hNOfDePCsYckyV1cy5YDOa2YjGQOfBVRNGs7h37pQGJ/iiP/r1BW2g2S9szhxMSohywxaZA/Cex+5m1un93JmX/1IukH04uZFEgcy/6bjJRTXFz3Nmf/VWgK2q9zOL9hJ9cu3yDjbsFy+rQbXI/ZxKkJT5HyU9Gry97YnZPLDGvD6/MdNPvubW5fOMS5iBnFXlvpHOJW9CmyqUXtOpD6xwrMuD5Qjv3o3uvFyc37uZ5ym6x816W/FUfC5o+KXtOdCFLC3ubMT6e4nfZ33nuY/Tf6W4lc+ymc82tMTbn7nrXfxqLLBrJ1xH6zlq2mqnbmMHtO53T7ZGehz8go8L6jsKF+qx5MWz6YoPyRKz2Wqa8u5MOoWK7dyveOZecsdRq1gblLTY1nxzFzzKdsP3md9ApKGEiP2sCrE9YSVfgc+gy0CSeJWraSRSaCZsXLIuqfC3l35WEStAXfO+2FGDbP/Rejl5u+ddWt38cZHSVfFS4fZf9gfBwB3Rn2rS/JgPz3zNl4Im/o/l5mqXM8arz33nv3AVatWlWqgk2aNCEjI4Nr166V8pRC/I940NKM49yQ7iUMjnnrnVdaApuoNN3fn8m0TjagjeHDMRvYnv85EFjjN2Qw017zQkUWp1dP4a31VVVTkZ/X26tZ0tMFbh1h6ciZmHjqaiHtCFs9iwAXPfHbQgmNKGky6EjCdwTjCehilhEyrWR9A8OHDwf+F1rqQgjxSNDQo5Whuznh562FAjpABtHbLuYMd1iieAQe3yAMYj9axoFkwK4doyYHlmBqq5LAmeMJcAGuHuCTEgV0JeoOwYz/8FkMGULJHPm2dJ39IEFdCCEqTW5Xu3v3kYzLl1AG1mh6d+GDFTlLleovEVPWFcxEBTjCwgVbideD8qmxzB/18LR0r1HzGetnD/p4ti5eysOfvg6G1vlmPpsxksCmhrlzsZELWFg4EaEEqnminBBCPCri2LT3En4hHihUHvR7N4x+RRLKADI4vWkDyy8Ye01UmdiVTFmmZsX4dnj2n828228xdZORVRW7TWdGf08UpHJk2RRWFh/R8+h1JJ/7lS3rI/j+j7JNipegLoQQleT08nBePtuFSS93xNfVFoV13kewPkNL0qmTbNsYxXZj89VFldPtnslsm3nM6Kdj//fGlkkGog8Tl9IcNr3FzJINvgMrCe1lnie4SaKcEEII8ZiTRDkhhBCimpGgLoQQQlQTEtSFEEKIaqLMiXLnz583Zz2EEEIIUU7SUhdCCCGqCQnqQgghRDUhQV0IIYSoJiSoCyGEENWEBHUhhBCimpCgLoQQQlQTZlj7Pe/Zr2Skknj0O5Z99CUnyrYWvRBCCCHKyLwtdWt71J2HMutfI1Gb9cBCCCGEKI4ZgvpKQnv1otfQUJbuTkQPKJp2ZJBv+Y8shBBCiJIzX0s9JZ7dS+dw4CqAC+qnzHZkIYQQQpSAmRPlEjmeKIPpQgghRFWQ7HchhBCimpCgLoQQQlQTFRbUVfY+FXVoIYQQQhhh9qB+INaQAe/iP5bxPT2xN/cJhBBCCGGU+Vvqm2az8udEdBZqAt8OZ8OOHez4eKTZTyOEEEKIgiqg+12PNlWP3vwHFkIIIcRDmGGZ2EL83uHNvp7Y6xPZHT6HiN2JyCQ3IYQQouKZPaj7dDGMoyfvm8PS3YnmPrwQQgghTDB797u9tQqA9AwJ6EIIIURlknnqQgghRDUhQV0IIYSoJiSoCyGEENWEBHUhhBCimjBzUFeicVIavrxn3iMLIYQQ4uHMN6XN0ZPAV8Lo0wQgmfi9ZjuyEEIIIUrADEF9JOE7gvHMt0Ufu4uIi+U/shBCCCFKzryLz2Skknh0C/+et1VWkRNCCCEqmRmC+kpCe60s/2GEEEIIUS6S/S6EEEJUExLUhRBCiGpCgroQQghRTUhQF0IIIaoJCepCCCFENSFBXQghhKgmJKgLIYQQ1YQEdSGEEKKakKAuhBBCVBMS1IUQQohq4sEyscOHD6/KegghhBCinKSlLoQQQlQT/w8nPk3vPzSGgwAAAABJRU5ErkJggg==;" vertex="1" parent="1">
          <mxGeometry x="480" y="268.75" width="354.16" height="102.5" as="geometry" />
        </mxCell>
        <mxCell id="It72JjRiq_UUshijpsOf-7" value="&lt;b&gt;&lt;font style=&quot;font-size: 16px&quot;&gt;Controller&lt;/font&gt;&lt;/b&gt;" style="text;html=1;align=center;verticalAlign=middle;resizable=0;points=[];autosize=1;strokeColor=none;fillColor=none;" vertex="1" parent="1">
          <mxGeometry x="480" y="240" width="90" height="20" as="geometry" />
        </mxCell>
        <mxCell id="It72JjRiq_UUshijpsOf-13" value="" style="edgeStyle=orthogonalEdgeStyle;rounded=0;orthogonalLoop=1;jettySize=auto;html=1;fontSize=10;entryX=0.325;entryY=1;entryDx=0;entryDy=0;entryPerimeter=0;" edge="1" parent="1" source="It72JjRiq_UUshijpsOf-8" target="It72JjRiq_UUshijpsOf-5">
          <mxGeometry relative="1" as="geometry">
            <mxPoint x="595" y="400" as="targetPoint" />
          </mxGeometry>
        </mxCell>
        <mxCell id="It72JjRiq_UUshijpsOf-8" value="" style="shape=image;verticalLabelPosition=bottom;labelBackgroundColor=default;verticalAlign=top;aspect=fixed;imageAspect=0;image=data:image/png,iVBORw0KGgoAAAANSUhEUgAAAWkAAADHCAYAAADbGqJkAAAgAElEQVR4nOzdeVhUZfvA8a/ATMKwL4KyCqi4IrmlZoqaipqmRrmlpWZimqWvmpk/Net1K7NX03IrVypNMxfSXLM0xY1MRAVjVRAEBQZsBvD3xwwwwAzrwIz5fK6rK5mz3ecw3Oc59/Occ+otWLDgEYIgCIJRMjF0AIIgCIJuZoX/2LRpkyHjEARBEDSMGzcOEC1pQRAEoyaStCAIghETSVoQBMGIiSQtCIJgxESSFgRBMGJmFc+iImsznHcnvUB7dzukpkC+nJSo46xfsIbT8lqMsKos/Vi4cQLdnCD78m6mTD9NvKFjqnW+LN4ziU42EL3zP0xcW8nFnh/FT3MCsCz1cfaZLxk0N1rfQWoho8/8dYxlMxMXHkbr18hvDCve70r82umsPGNMXzRBqBuVakn7DVvMuiVj8Ff+zpqQYPr3D+bNVYfIaDSQD9YtpI+stsOsglefp5uT6p+WbdsxwLDRAODx0lDW7VjEsbW9DR2KEVEl6Hc62WHXtCtddXyH/Ht0xdvRnT6zlzDBr24jFARjUGFLWtZnIfPG+8PZlbym0dpJOLyB6fGwaslQ3pg3lN/f262e1pt1x/rhW+5aszi7eCFzfqlx/GVt/YVTPQpb0hc4UAubqKomAa3xdTFHe1PRgH7ZzqBfthf9GLL+E4J96mbTfm8sYXInO1DEsHvRfA7rODYRX05njfM63unkw9B5C4mfqHteQfg3qqAl3YNZr3fALuUEK7VdjkZtYMvZDGRtAhlhLK3p7Cjmv/Ifevb8D4OeiFLHY8jvHWYP8UFKBuFr3mNDVHkzyzm8cBG7bynArgOTFw3HWL5qglAXym1Ju781gg42ciK+/4JwHfOEX4hG3q0D/sOBjQBHmNjzSNH0Xh/PZ25nK4j5mZ5vHNGxFuHJ4c6EKT1wBuRn1zO/Us3iKDZ8sh//lUPx8RvGB0P2MWePaE4LT4ZyknQHxnZyh7TT7C7vD+JwAsnvdMDFrQdwopphFHZ8xbGz5ypOvvIys4KfxsNeFZ4iPZqwtZv5/GhuycV0dHwVKe/E4OTLtA+G0qtZAyylAHko0mM5uvV7lu9N1x2qZQMGhwzi5S6+NLRRHz5FOvEXfmfrypMcTdXcn1LL+vTj2LF+JT97cImPh2znaInYXAl+rTcDOvniYmOu6qglD0V6Emd3f8fyHXfJ1hpcFveiwb5XPz4c35UWLuaqj9PjCNu6geV7c7UuVR2WbTsyc2pvOnnYqzuS88hOusaPG7az6bc83QsOmExfbykoovjhkyp8X2I3sOV0Vxb2cMY/aCzue9aQUOO9EATjp7vc0akvzR0h5a99qla0zJ8xy7dz8OBBDh48yM7Qnfy4ZSE9iCf9Acicyq9CV449AZ/PYsWbHYsSNIDU3pfBc6cys7keNgHQvDfrvpnE4NaFCRrADKm9L0HTZrEuxF7Hcl1YvWMW04L8ihO0KkA8Or/AKy/pJ7yQ/75LSFBrPOwLE3RhfJ50mzCLr+a46lxW2mMqO+b2Lk7QAPaeBE2bxcLn9ROfZdDLfLP8Zbo1ti+Oz9QMS4/WjP5wLouDdJ/7h/dqjgzIOBvKt1VsDId/cZwoBeDWlbGdqhu9IDxedP41+Xf3wQ454ecjABnDFy1kuF9RRkNmI4NbCZxAQSCAiRQZNe0bs8K3tRUo7nLqq7Us35OFtNcLrJjZHQ9pAzqN8IX/0xgaVqrjq0jIVI4Fe+rYhj0z3++Hrzkoki+xbeVutp3LxdLdkxcnvcLozg3wDZ7AzBPLWH5NczlX5s4bSgtLQHGXS3t+4vPtUcRnm+HRujkDXg3Ct6Bw3mjmDPlP0ZJVLvnkZRF//iIHDpzl7IW7xGeDfbPWjJ8ziiAPMxp2f4HRi79km5bjF9BZdfzObt/O8q1JKNp2ZOEHLxNgb0W3Uf3w+OXnmtXpLQNYGNIRe1PIvn6Etf89QlhCHvbNWvPqOy8zuJkVnUJGEXxqMzvLNPeH09FbCmRw7ZiuAlo55D9w+dZQ/PzsaN6nC5w9XZM9EYTHgs6WdAdXZ1AkcO0Y0OldXvCTgiKG/e8FE/xdDADydI0/dztnOugjIkUcO99dxvw9WWQD6Uf3sfVCFgD2Db1qvv7BL9DNFci+wsaJ29l2TlUCyE6IY9vcFWy8nAs0oO3Qkq1Vy9dfoJsLoEhi77vLmPFVFPHZAHnEX7nC2lnLmPFVzcMDWBuykNdm7WPnybvqbUD69Sssn3JElWClzjTprmNh9fGbszWJdCD78jlmfHqOdACPJgzQWRuqHI/xPQiwBJJO8l7Iz4Ql5BXF93nIZ4QlAZbN6T5Ey8LdfHGWArnxRJ6tztblHI/NAMCuYVvRgSg8EXQmafcGQEYy1yhsVUPG2S2s+VOOvY3qLz077Zquxast/sBa1pZa7dHEcmrEVdStnReWQHbkWS0tvTx23rwLQEOvkrWVF9t7IQWy/zzC5/rf7crJBoX6n1Kp9lmi964qc/w4c5O4XAB7PDrXLIQBfqqTV/y5MCLLTE3nYnwWYIaHn5byl58zdgApCRyq5vYTouJVV2v6ahQIgpHTWe6wMgfupROBO+80dQbkRF9QXaI2d7QEFGSkJgDqgbX3EqrdbahJkVdOp5MetHKyAsCy4wSOHavsUr40cVYdquS/r9ROYJq0dU7WSBYKBWBujpVLTdbji4v6RiGPIUs4pq21XA6ZqfrMUqCoflms8OthY48v1e+qFoTHhc4MIJEWljN8sJMBJJNwWDXNw14GZJCeCOCiSuiPi2rmvOIOvFpm6cfibybQSUffZc3kkpVWszXU5DjY62r+C4KgU/kpK18B+GJvAzxIV3c49cDdASCd5FOAlwt20lL1aSN2424W+FhV8fkU0cSnQScbkNm7Akm1Fp/H+CB1gs4leu/3LNtxhejUwqmVuZtTC0svHGwAlGSnVjRzeYqPQ5WeEaKWkJsNOOunk/lBOnXxdBFBMLTKPwVPKlWNR/ZqgYtG0pZ188AOSE74vXYi1LOjUSkoAEvfp6nKKK4/YlV18YadehNcxc43Rb76H/XN8ahg3sKaL3+fZPrnmgkacDKjOm3RFm8+rUrsqdEcOV+NFWgoPA4erbroHp+uS1y6KjE7u9O3mtuXNXVRdRhmpOi8wUoQ/k3KT9KmUiCd7FzA3AUPPz8m/KcP7gDmVrg4+vNGdz+kpBDzy2NyB9ies1zNBpw6snDHWEIGNMBDnW0s3RsQ9OpQVu94t8yY4ks7LqquJCxbE7J1EjNf8ixazr5Za0KWzeLTN7Vv8tRN1YkB1658OLM1vk66w4t9oBrJgmtrQnqZq+PyJHjmJH7a0bvCJG/vGUC3Zur6k5M9QdOmsmRAAyCP6GNhVGtQhYZLu69wB5A2H8qOtS8Q3N2ewsqMfTNfgqeN4ptdkwjRtvDhayQoAHNf/HtWb/svNHUGICX2d6N7FIog1Aad5Y7sXJDZewCHSLg3AX83Z/qsWAFASkoGzs5+DN+yGABF1CHWxxYuqeOSvMTddrX4gKWKZF9i/toWfDMzAHuX1gTPaE3wjNIzZZVNZn//zLKtXix51RdLG1+CJk8laHLJWaL/1rHNrUc4O9iXbvZmeASNZV2QxrRSdxyGHb3G+I4dsZe6EjR3EUFzNebNzyI72wrLcpqw9h1HsbBj2c/TL+9m5VdZJT4rGr9dimXnSRqdqqq7QIsqG9f28fFOL1YEe2LZrDsh87trSchxOk4G+7h8azh+fjJa9BoIx/br3hFtZGOKxlnHnIyo2rKC8JjS2ZLOyATsXOhCAmvW7SdG3WyRX/2WpQuPE1X4c+IJ1sz79rFq1WSHbee16ZsJu3KXbIXGBEUu6fFXCFuzgeVaTiCRX3/JyOnfc+p6qeVy04k/+T1rt+raYjTzQ75kb+ntafPL90z8/CTx6RqjXBRZ3LlyhOXjPiYsRdtCsXy/5Qhnr98lO1djufw8spOjCFu1jNemn9MyZK56IteuYuTH+zj7d3pxKQcgN4s71y+xc/k3aD8UcrYcvYYckLXsyZgqDnT2Gx+InxRI/J3NNb0kEITHRL0FCxY8Ati0aVOJCUOX/MiENhkcnvw6K2O1Lmu0Aua+z6e97OH6PnqGnDR0OEIJfryzYQV9GoH8/Epe+z8dD/svTTacFdvH4CeVE/5JMPMrPXxSEB5P48aNA8ppSe8+dQ05zvgPetyetG7Fc01UVdI7iaL/3/hEsXL9CVIAWfs3mFWpN0b4MWHpcPykIP8zlGUiQQtPEN0dhwd2E54Czj3fMto3YoSseJ/VMzU7ylwZ/XEIQR4Ad7m8u/aGygk1cHYZS/fEoEBGh8kVvXFFRp/58xjqLYWMcNYv2v1YldYEoabKGScdzrKlu3FfMpShi1Yh3biS0J9jyECGe8uu9H1pGIE24YyavqHuoi3Nyp4WbUexMKj0hDzu/LK71AOSBGMStf491jRSv3Fl0WKyp83h29tl53MfX7k3uAjCv1X5N7NEbWDqhGgmzx5L4FurGPi2+vNcBRn3rhERZtge9q1ffI9L6Wcap0ZzaudPrN1z16CxCRVRvXHFcsk8hsmPs09LggZI+D2ChN5wbXFFb3ARhH8nnR2HgiAIguFU2HEoCIIgGJ5I0oIgCEZMJGlBEAQjJpK0IAiCERNJWhAEwYiJJC0IgmDERJIWBEEwYiJJC4IgGDGRpAVBEIyYPl5FLRiDp7/gmYE+ZT5O2d+Pvy8aIB7hCdUUu1Xj8XAxR5l8nOipe6joEeqPC1nnySyaGIi3owypKcjPLiN4Ye2/r160pKuobfP3+GT4RtY+29nQoQiC8XmuM04u5tQDpC7tsH7O0AHpSc8PWDdvIH7OqgRdl0RLuopa+bTA1RZyEg0dSSkX3+KPohZzIM5vz6axrSEDMgLtR+I7+xn1C3MT+XvGMh4Yw0vtZc7UHzsQ54AWWNtKMAXIV5Kb/jf3zhwmbesNQ0dYfb+eITW4hbolfYHMXw0dkH4MH9geO4CMCLasXsO+Mwl19shckaSFfy1prxZYoiQnMw8Lazdsg6x58FWmYYNq0g3XucE4lX7XgakEc6emuA1qSn2Tt0ncbJDo9OAGGVNnk2HoMPSqC77OUkBBxK45fHumbrcukrTwL9UU66bWQCy3Dyto/FJT7Fr1Ip49PDJYTGZYvP6iKkErU0j8YSf3Ttzg0T1AZo1p53bYBfXiKYPFJ2gnRWICkEDMnrrfeqWStIXVYCZ1703bhjZITIECJTkpNzl06n98n56jOScDeqxgtJ8FKOI48O08tuWUWBM9uq3gzZbq6dvmsU0B0JnZo0Joa3Wbw+ve4zfn8Yzr3gUva4mqav7gNsdPLmbd7Qda47NxGMOMnl3wsrNQHcwCJTkZcZz9bQfr7pR9hdbogVsY4JbD5R8msfReC4Z0GcPA5o2wMAWUD4j9YzOLrp5HFfoIFk8Kwqv0MWkVQmirUu/JTgxjxP7QyhzSyrF9AYeew2jU1AWZVPWRMi2BxNM7SLl8XD/bsB+KQ5cgnP2csbSQYgIU5CnIjg8ndv8Kcu7ruKizHYHTwEG4edjxlFklY5MGYjtwLO4a+5OfnUzyuR+4fXof+QX62SUAnuuMvTU8ir1K9nc5pA9uipNLC6w99pQteTw3lqZT22ERf4DLM85Tf/II3J5pjMxcQj2U5MT/Rvx/9/DwnuZCTXHcOAU360RuvbYM+bNDcHnpWezV5Yv8+7Ek7lpLxqFcjWW6Yd9EAkD6kaWk/aDx0mB5JvlHjpN2pJzfq0NTrN8JpqGPM+YSACWK+39zZ1coGYfulZ1/7HTaDvQi5/xqbiy9hemQUbgNboOtTEK9fCXZsYeJXXSIPPWvuP68pfi1MYfUU1yZvJP8smuk/oKl+LU0J//mTq68f6rUsSg1c+YFIsdvrrjjsKU/dsMH0qBovyDvfizJv+7XUfoxw3TIy7j2b4eN+ng/UmZy/9pRklYcL9qff4sKOw4tGrzNpyOG0cFNnaABTCRYNGzBkJeWMruBhcbcORz4NZTLDwCpJ316jqCJ5rrc3ubVlhZQ8IDL+xerE7QmW1y7LGLe4O542UqKo7NpRODAj5juVCY6enT4lFXBvWnioE7QhfE5+BI4eA6fd+iORenF1MvaNujN7Ffe4+VW6gQNILHBq1sI85o2qujQ1CrTVp/RespbNGlVnNAAJI7uNB70EqX/HqrnDRpPmUiTp92xVidoABMzKdbeXWkz5QscHLQs5rqIVlPG4uNdnKCLY5uCs7ZDZ/kGjd+ZjV+p/TG1dMG151t4tNXLDhWRdm6CBXD/+hngDBmxSsAZ26ByjpxtYxyXv49fYFMszSXUA0CChUcgzZaMRKp1IWsspkyn+YRAnArry4CprReeE+biqKPjzLS+TdV2qElf3D6bgrdfcSIDCVLbpnhOeB+3sdp+USrmdo2p//4CWo1sh51MvV+mEix9BuA3L1C9n/AwLIJsAKcWWLfRtqZ22HqbA0rSI/RzzW/6yhSaLRiPZ4n9AjNbL9wGDVT3J2gyQzpzLq1GPlN0QgSoJ7HGrs0QWq4ci7SKb6E3duW3pE2CmN6vPbYmkBN3hK1Hd3FCkYONRXeGdh9BH08b2vZ7mwHblnCgsBVUcJJVR9vz6Yv+2Lr1ZlzzcOZci1atq2cL1R9O5C5W3c3RskELWrbyBEUql09u4cuYCJRWg5k+cBgtbWzo0GUMrnu3UPjmQosGIbzazgkJSu7+9RPbzv1CeIn4LGgQMIhxN0+y+n7ZrXl1HQOa+5bnxev9Z9DHTYJX28G0vLGWq4Qy58vi1rGqFQ45f61l/G+1VJxymE2TF5sjMwHl7Qhuhq0mMykBTNwxdetHgz6+ettUwf0EEi6GkfZnOP9kJgB2mHi8hs/wvjjUd8E7cAT3dmleHbhj/3wHLE0g+/Jmrh/+CeVDeVFsjs91RFuD2LxHP5zrgzL+EJG7viE3O0O1LedA7LoGUz9Py0LVVljqSOH+YVUNOud6Eo+aeJVf8rBugZs15KVe4Nb678m5pMR0yFh8RvpjYfsMDSfsJ25D6Zq2NS7trdXli82k/ZAILZ/B5Z2RuNha4zp0APd+PaDe3gXuxwzE0UeCTeAsPNhMwuZIHlXY8nPA5u0BOJprxpYLrl5YjB6Fd3tnHAdOIuv0xzy4WXbpej4DaAaQeYNb27aQeTwH03Fv0zzICzOf57Btc5yMP4Hzv3Iv9RksnRywC3Qj489SveMD22JvDsgjufed5i/sBmnj3yat8Ed1C75C7YPxfKkp5kBeagSxO3eSfTyzqPRjP7hZ2WUGjsW7owP1yCXt0GaSQiN5JDenXu+euI7ui6NtO7xn/kXUggsVb7/StJ+e60q5LWnXVt1paQHcPcmSsC2cUKgS64Ock3wd9gnHUwGLJnRqXHK5nLufsuJsKiDBq8sEXrewYEivl2hpAcrbR1jx20m0pWhAXSaZwdKYCB4AOVl7+SjsPPcBnJsQWBRxI17p7I8FkBO1izm/7SW8dHx3ARMnAvx769z7+5c3MrVw3woi+fpspCo220YElHdwao0My15dsTWB/Nh9XN4wW5WgAQoSyI9fz50Ns9FP99d64v73Bkm/7VYnaIAMCuI/4+Yx1c+mLr5ISizji8QaQMGDKHWC1ogtZdsbpGp5FZbEVtW8yYr+WZ2g1dtK2c293SNI+lMvO6TStxuO1kByJJmFpY1dV7kH4NICaw/di+bFHuDa5M2qJEge+Xs2cuuMqpRg20zHsEtlLNHzP1YlaICrf5D81R9kA/VcmyEratllkr1oI4n3AMyxD5xEm40f4TlvCOYB5uXsz4s0dAHkEUTPLIwNSIolZ+lSYq7mAs449HfTvY57f3Dt7dVkHs9U7dem/SRnAjgg8y+cKZH7FxN5BFg360zpkWb12zdFCuRcO8VD3VuqJDMshj6DNZAff4BrkzeqEjQUlX5Sp36patkXscamtz/1gYwjy0jcUHiCy+XRkQMkfnycB0D9pp11XD1Xg6MPfd4Zhr8NkJKAIV4YWG6SDnRVXbcmXQ+l7Ak6mr9ScgAJrg3LfnlvRqzlQKISJI0IHLqCIT4SUMRx+MgWLesqFnumdB0buH+TpFzAxAnXoqu67jR1BnjA1cthWpJ+NNuuq7KFhXMTWmrZlvJmKDP+KHXCSL3NXTDgCPJBOHhLATmJv36htS5YJwrUtSgTaalDcQ75bQUgxfXFDbh37ItJJRoauUnJFAD2PT7Cp+cIJPVr75q0fsem1Acyo8OLW8zyo9yPhfJLHrHEzjxU5pjn3UhEAdSzd9Hapko7tILs0l/q89fJzgWwp347jc/lkaRNmk3kTxFkyKGeqTV2bQJp9v5SWnw5CetnyyZrszaNqQ/k3jjDwzKt7jxy/04BwNpN27ccyI3kxowdKEose4OH6ep/avyCH4VGqE5mZUoehaWOe6Qd1ccQwc7YeUmAXJIPlz3m2rXDyhUgkYxtWmrwN6+SlQlIXLCo6fjsngvZefAgB7es4p0+7pARxbeffUF4DVdbHeWUO9rTQD3O1rXbl4R2q+qqo9l2+AgtRwfhZWkB5HD18OKyCbhS7qPMA5AgswZSAStbLExU0+5qKWUA5NxNJYdGWEgs0FYBVP5zX0tyL1neqHMNfLGSAiQjj62D7RV2Tvq6YF6/MucmOdm7v+Cm7Vs0aWSHa793ce3zLrmpMSSf/YnUPw9RoKXeoTy+lEiHj2jRQobTs2NxenYsyrQEkv8M4+653Sj1dluaP1Y+qmRy/3fNy/U85NcTeeTlVvVRHpl55AFScyvMoJJ30GWRpwTMzXmqTF9KLoqtG4nbakZ8YDcc+j5HAx8HpA4t8J62gDSfZSRuLk5C9R1UJxXzgEm03VnZoDUoc8nXUlLJnvk2l0t/KD9K+s0+ODYpVfIY1hknc3iUdJ6M89WIobTO7sgkACnkHqrsMg3VLWQ3vL/5nx6CqDwpEiwNVOsu529SUtwRV11mEiSFvRJY4NSwSXlzV4ISeZb6nxKJgStFtcSsDvfKdRGtCjsnK5Wg1QoOcW/DCMK3HCIhKQMlYO7sQ+NB79J++nrsG2j7Nl8je9cwzn31A3/fSCY3T9XR6N5zIu1mhdKwaXP97FPf9jjIgMxYskslk0eHb6rKZhWUPHTKzaLqpfNcFOm6puXx6Phx0t5bSOSkjcSnKgFzHPuOxVIzvjq9wy2PnJORPKRkycOiXWNMgXuXDulnCKNEUvE8+limuo7NJ7h/f4InrmT/TTnY+TAw5F061F0ERcppSZ8h6UEIba0g9uQY5lyr4ppNujN7cG9cJXA3JhppY18aBExgdtxslmrtNCxvXV6oSppy5IUjmtJTuQ/YYoGtFZBVdjGLBk6qM2/ufeKqGL7B3I5HTgcskSGxBXRcJdRccQdgQWYMN3av4H58TPFkHc8CKSYnP/YzkjZCEnZIfF/DbWBfnK3d8R00hQsblmq/hE1ZT8q360lBhonrSJyDXsCzkR2eL07kwbJ3dfdVVFJhqQPrdrTY2U7HXM5Vu7GlsQPmAP/kVL78JGtMfWsAJXlarszLuBdB+pLfsPo0EDuJKzYdIFtdT1ekZYKXtXooXR3cjXjoPPdG+OPq1AKb9pB+vpuqNKG8QfouPfXw/ppMzlSwwApJG6AyfRJFy8QSHbyiVL26dsgTD7Nmmj2+P47Bz9GHrl4QXhdXuBrKbTxdSkkFwNVjWBUL8Rb06DqCtjZA+hm+/uUTvruWAyY2tH0+hB5VbKE3ad0eLxMg6zYXi5JxBEnpAE4EtNU2zM6fcS1VNfX7ieeLRoTUmPqvVGJWW/dcnyPzLoALbs8NraVtAPTDRt3PdO+3WSUTNFSxRZ+BMvoz/t4ZjhwwcfGg4itDOQVJ67mz6RCpAPVdsGpQhU1qVVjqqJhdq15FQ8/K54BNey/qATlxEZVO0qaj2+MAkBmLvMqdoiVb34roZPIBi8bt6+juswgy/rwHOGDb1Q2G+WMvgYfXTpGjtzHIV5GnAjjgPFTXyVTXMq7YvFKX9+Elk5ULYImddx1uVq3cdHn1aiR3C0DSeDCrgsYzwMGzqLZrY9GeAa1m8MmI/2N0qeWaNJ/DuJYWUJDK74fXcpkcTvy+l6s5gJU/4/qOwFXHNm3tutNEqk65Ek96tFrEe52cACWxF0M5XTRnJHui1B2DLcew+NnBdFAvZ2MTxJRBb9PVHlDE8ftl/fXJXkpTnbgkTfvzgU97XPXewRhBxuUECgDzthNpPfxdLBzc1dPsMPF4g4YTluphnHQ8D9VNEdtWE3lKCiDDxGEoDsN/oGM/dx3LvYHnlPU4dxzKU9Ya89TvimU7X1WLMy2+1HMNAnF67Rvce47A3FajdS71wbxLW2wBFMnI79Zwlwa2V93NlxtBVPDbXNb231LVqAtc2mBbZiywFfV7O1Ov8Azj44/1kll4uQDKWG6Ham/F1m/gj6mrOmk4OFB/wnR8eztTDyVpv2o8Be65kXiumYT9MH9MNU8mMmtMewfi8n6g6vkQ8r/J0ryn5eczpMoBh2fwWzMeS80YXZ2pPywYlzWzsNfjw4zydv1JBqqSh2Vrd0zJ5d45fY5tKB5JUr/lWJotGYJ5x8JvtTn1egfitGpSqXHSiWRGpPAICU4vfYzb5HZIi46jOfU6t8N69nSa/jdQj3EaXvmno5yNrD7lxbzunlh4dme0Z/cyCRniSnY+WIzhzS6eSIC7l7YUj08uCGPFMX9WDWyBhWdvphSOny7Fts14Pmwzvszn96N2selaybFdSX9u4IDrHAZ4SmjQahjTWw0ruVDBA8K13jRTfVcjzhPbOggvqQ0tn3+bTzQn6umOw4I/VhDppupkkzXtS5umfUvNEUNkqU+sR/9MCy1neeeBP+M8UP3D/XAu/W8e/wBwiPS/XsO9ix0Sj74EvFdyGwX35eTaytDWLjWxd6dxv4nQb6KW4DP4e9/qMi1OE2sXXJ8di+uzY7WsUWyuAcUAACAASURBVEHK4XU1vnwtHCKmuHVZ9xCx8+e5n/kMltbaxgI74PbmXNzeLL1QJsnfbi4qP5Rm2XE8rTuW/Tzn6k7ubNYsqUh4yqkFdsNbwHAd8eXfI3Hz5pLxyy+QvLkV1pPbYeHkj++b/qAlRr0+8yv+KPeTArFzbY+bhTnc+4MMXR18hXdslv68VMkpbX/JZ5I82rCRm96zaNLEHHOfQJrNLJ1cYymdIfK/+pIY3/fx9TLHMXAsjtrycezVSu3i46LCduDNa/OYujOMy4kPUGr+5SlyuBsXwYHda9ldtLbiOjTpZ/g6vOSZNyfxf+yPUQISvLqFMFFbDUVzZECBkpx70Rz/aQkzToRpHQa4LWw6q36L5m62svjj/Bzu3jzJ16GzWVHV+ndFFKEs2vkD4aWPh15dI3vXGC589zt3UuQoi24Ugn/SEoj5bp1exkn/c2QyV44lkKlxElNmJpP082ecX/2zjm3sIF7dYfiPxnIFCjn3/zpExOoJpCSVviY+Tsp3qg5D+cPiX3FBnoLMW+FEfjWWvy9WtdOjtMIhYrmkny/vRoYbZN5Q7Zm2scCanWKPlJlkRh0nasECkn/SXVgu0ZGWryQ3NZK4TR9zY8EfJU9Wv37Prc3HSY5PITdXqbGcEkVmCqnn9xD51kLSjmup+x7fzI0FG4mLSiFX46v+SJlLdlIEcZu/JE2vT5zL5MGZG+RjTn0ZZFzaX41O04rcI+f9ufy14w9SUzPJKzpYShT3Y4nfsV3Lifse2TM/IPKnC6TfV2ocX41juPKo3iM1pHoLFix4BLBp0yYDhlH47I5qdlIKQk0UtQSr0iFV/LyK0i1E4d+mBwtDZ9HBRk74J8HMP1Y3Wx03bhwgHvovCIJQgQzkDwEkWLnW/WBpkaQFQRDKFUHkbTkgxW/YCt7p416J0Uv6I5K0IAhCBfZvPUSMApC60+edr9h58CA75/eok22LJC0IglCRqA28939bOB2bgaKOH6hjJB2HgiAIgibRcSgIgvAYEElaEATBiIkkLQiCYMR0Jmlvb28aNmxYl7EIgiAIpYiWtCAIghETSVoQBMGIiSQtCIJgxESSFgRBMGIiSQuCIBgxkaQFQRCMWF2+KEyoFF8W75lEJ5tSHz+4xMdDtqPzceYhUzkW7Fnm4+id/2HiWn3HqI0fE1Yvwj9iHlPXR2mf49UVzOsczxczV3Jab+/Ke9I0xW7VeDxczFEmHyd6qsbruR5zss6TWTQxEG9HGVJTkJ9dRvDCE4YOy+Ce4Ja0KyHL3mXXz++z+HlDx/K482PC6iUM9Zbh7v8sflrn8adnZ2/svPowa+kEHfM8nszGjsdz/af4zm5a+xt7rjNOLubUA6Qu7bDW43sNDarnB6ybNxA/Z1WCFoo9wS3p5gS0d8WerIpnLWylxvxMzzeOaJmhuPVb85ZrNHOG/KfstiuydhU9i7arozVeK2T0mT+Pod5SyAhnzewNaG9HR7Bm5hqc171DB++hzJsfz8SFh/k3NKjrt/LHzhb0/KI27X49Q2pwC3VL+gKZen1lluEMH9he9RLejAi2rF7DvjMJ/4rvhj48wUla0AfZkA94o5MdKGLYvWg+h8v7y5IfZv4iD1YtGYpPp8ksGvE700PFn2LV3CBj6mwyDB2GXnXB11kKKIjYNYdvzxg6HuPyBJc7hJrrwayX/ZGhIObAMjZob0KXFLWBZQdiUCDFb+gHDK37txEJRkeKxAQggZg9ho7F+BhXS9rSk3FzBtG/nSf2Uh3zaCk5WLbtyMypvenkYa+qZ+XnkZ10jR83bGfTbxrvONZaOrCi05xPODan5Kf663AzI2DkUKYNfRoPe/XhVmQR/+cJNn54klOVe+tpLTKn17RRjOvhS0Ob4vjuXL/I91/uY285LwV2f2sEHWyAlNNsWZ9Q6S0mrN/C6S4L6eHsT9/X3Nn9RcXLuo9YzIqR/sgyTrMy5KPyW+zV5dAU63eCaejjjLlE9VG+PIXUc/tJ3RxBftE2++K2cwCOpRa3aD+FtjtLfRh7gMszDxX/XPjS28LPnx2A69ieONpKqIeSh0l/EvfFZnJvaq6k+KW3JWReIHL8Zh0dh4XLqF6umztoJK4vtMPOVkI9IO/+DeI3byTzt1xtB4L6k4Np1LEJVjLV/GWUu21Bn4ynJW3px+JvpjK6czkJWttiQS/zzfKX6dbYvrjDwdQMS4/WjP5wLouDDHkeMiPow1l8OqFjcYIGkFrh0f4FFn4ziiBLw0WHpR9zd8xn7mC/4gQNILWiYevuTPtsFnN1Hj9/RrR3BxREHfuC8CptOJwvjkWhANw7jaVDhfP7M6KPPzJTwLELI97yr9LWKqVJX9xWTcHbrzhBA5jKnHEJHE/Dl/S8PVsXzMdNp9W0vjjZFiZCCfVd29F01kiq8CdQAXtsF82l+avPYG9bnHDNbJviPW06Nk1Kz++A5fL38QtsgbWuBC3UKaNpSXeaMZRO9oAiibBVm9l4IJ10J3uCXhvLtCBXpKRzdO5/+VizXmUZwMKQjtibQvb1I6z97xHCEvKwb9aaV995mcHNrOgUMorgU5vZmU2pzrXerDvWD1+yOLt4IXN+0f8+Wb40ipBn7YFcovdu56ONUcRnm+M7oDuz3uyNr30AIR9Gcmr6Jeq+QW1G0Aev0MvFDBR3Obv9O9buiSsZn2UDer06iCNhuzlbevGAvjR3BhS3uLy76s1a+e7L3Brmh59jc/p2g/BT+tin6qs/vCeOEshLOk70qp95GJMLmFOvcwts+w/kqQLNuQ+RGHyIRPVPlsv/h68X5JxfzY2lNyq3Qdt2NA0CclNI3LuZtB8Soe9Ymk5oh4VtO5yG7SDph8KZb5A2/m3SCn8cO522A70quWfWOPpZgzKF+K2rSA/LhGeH4Dk5EDuJM84vNuXBco2YXxlBYy8JkEnytxtI+TmWR1hj1i8Y7+H+WKAk9dvZJP2Qp3OLVae/U9K/kZG0pF3p3cwegPgDq1h+IJ10gNR0wpavIuxvAHtadLEqsZTH+B4EWAJJJ3kv5GfCElRfnPTrV/g85DPCkgDL5nQfoqcwffpx7NgnWv7TNpLCivEDW2MJ3DnwGRM/jyI+GyCX6AM/M3H2Se4Ali068aKewquSxr15paMVkMulDSuYszVOa3y4BPDyYC3LP+2OM0BaPMerU3qQHyc+DcAO95YVFaYjCD0cgTwfSDtN6BcR1dhg+cyszVVh3fhVnaABcnl05gIZ8xaSvFXvm4TcWGIWfaxK0ACHtnM7FkCCzFuPw/mUsUTP/1iVoAF+28OdCNW/LRo0LjGrhX9jTIHcSztI/iGWR3JAnkneDxuJvZQJSLBprccrGUcf+rwzDH8bICUB/f9mH39GkqTLY45Ux4l2gJ8rAPHnwogsMzWdi/FZgBkefr61GJ8uT9PSAyCJc1+ll5187RrxDwCpMy0NMU67TxM8AFKv8P0uLa2ia2Gc+xvAHJdWrmUm93BzAUB+O5LKV6M1JRB5W5Xd7Z0rLngkhM4h+IX+9B9TO/Xoh4n3eATYBM7CY3o3zFxr+yIzhfhFK8guUXvOQ5GmTqR6/MtMP/K/UtsBRbKW72QFTKSSimeqrJ4L2XnwIAe3rOKdPu6QEcW3n1W1bPZkMJJyRxJ/JebSy8UcjwFTmXmrsNzhSvDEl+nlCpBO9GnNMc2+uDip/uUxZAnH9NVaLk8lxkkX6e6M6trAlcE/fYK2xqghBTiqr0oy08uWMgDI46/kLAY3tsLKwrzM1KL6f371u44K37oss/cFDHtnWd7nq7npPIsmTcyx7xyMfedg8u4nknbpKGnfXSDvnr63mIvyZtlPFUs/4LKet1SQX/nSRO6tFB41ccM8YCQuw4rLHdKhI/FoaQ4oeXBN/+1dKRIsxUgfrYwkScPe5UcYsOMFfKWuBM14n6AZJaenn9nN8lLjJ436ziSpxKgrbZZP1axVZKnPVpVRuEfO+7OJeDYQx4FdcPRypr6tGy6BY3F5biBJO1aT+pPeM7XRebThR5I6TcHN1hqX4dNxGV5yel7sYZK/00M9+th8go+BzK0PY2e+wcAmPgwMeZfwMx+J1nQpRpKkzQie0xtf0zzuXE/iqcbFIzwU6XGc3f0dy3fcLdW5Fk18Gnq6y68W/JJC8hzwJY6dPVdhbOGdupMOWIHMmgDgUpk5zGjlomptZ6WnlJmanqsEpGBa81ORPD26xuvQm9+Ok/bbcdIwo15gNxyDB+Lq5IDr8GCyf/oSbQPW/k1M3wzG1RZy4m+Q59C4aAhevjyF1N92kryhkh2jlSRPPMyaafb4/jgGP0cfunpBeKxeN/HYM44kbdmD59uaw4NLbAvZTlglF/sjNp1gH3s8WnXBktNVHCGhVP/fDGmt3D59jbjkfvi6uNLydTP4Wp+94XoQnsSdYE8aurTm5aCfuBRWKr7Og+jYGMqWmdSLp6QDMmSNWuDO4WrUpWW0cFZd36anVNx2qpNx0iXk8ej4cVLPSTH/ZgD2EjdknSFX291w6rKNmbmVlomPk6bYdXSmHokk/99qMuvsZtBksnIBqSV23oBI0iUYR8ehnzUyABtfer/qS0B7V3ydKl7s0u4r3AGkzYeyY+0LBHe3V9eBwb6ZL8HTRvHNrkmEaF06mrhkAHMCho9l9LNW6HfIchJ7LtwFzGjx6nzWzQygW7PC2q45vt0DmPbxVHZ90V2vW620879wLh7Aik7TprP4VU88LFWxdXppKN980IWGgOL672zUkpjkZ2NIAWjkQ99q1RJfwLcRQAoxZyvKBrU9Trop9ivn4jKtG/XbOBR/7OBA/bH+WAMok8nRcbty7h1VGUTacgguw7yo99jWVp15ylz1f7ux/pi2ccO01jtQhYoYx2/g/AnOxXdhsIcVAa9PIqD09Pw8slOjObpxO58f1bjgvLaPj3d6sSLYE8tm3QmZ311LQo7T0TGWxNaTcXR7xROpfWvGfdiacRpT9VFCifx0Azv9ZhHsY45v0CgWBmmZKabULX3Pj+KnOQFlTxg2Acw9FsBcHfGFrP+EYJ+yq/cN/oRjweofSjzuNIvPl/5My0/64WvegE6vT6XT66UWTj3H5zNPEq9t5y4dJyatB86OPnR4zZ0NlbhrUJPs1Y54S4G0GI6XrbXUORMrZ1yeDcblWW1TlaQdCtX5AKX8Pb+S1mkIjhItddzSdxxWR+FdiqU/t25Hi53tin5M2/82iZtrsqEz3LvWF8c21tgFjscusPR0JYr7SSQf3E76nrIlMKF2GEdLmnR+ORylLlfkocjNRZGrcfltaoalix+D584qcwdh5NpVjPx4H2f/Ti8aLQBAbhZ3rl9i5/Jv0DXENf6rtczZcI749NoqRaSz9o2FfPzdpVLbyEPx4C7RZ/ax/EMDjmq4doSJr33J3it3ydYcpJF9l8iwzcwY/z1hOmtI4Ww+q0rMlbtrUJMfb3T3QwoknN1ciY6i2h4nfYO0r/eQGJNCbq6SR+pPH+UryY6/QPTnH5C4uZxOw/jjJH68g/j4eyW/g4+dPB4eiiBTvQ95ubkoNI4HSJDaeuExchZuYx10rEPQt3oLFix4BLBp06YSE7y9vcnNzeXOnTu1H8XzL7NrTkfsyeLs58uYs7dk94x9xy7MnTOUABtQXNtNv7dO135MQsVkQ1n8zQT8ZQoSfnqPN7+szBOWQDZiBdtf9UP6IJxlI+YbePCdUMQjELclQ3CUKEkLW0biplKtZdcW2L03Hk8XCaSe4srknejnnNSDhaGz6GAjJ/yTYOYf08tKH3vjxqmu7Y2iJd2rR3NVLTn+LMv3lu0/Tz93jnj12Hupyb9t6NdjTL6bj3ZHoUCKe793mVyZJ/n7TWDJK35IkRPx/TKRoI1JYACOEkAeSVrpBA2QFIn8jvrvU6LP53pkIH8IIMHK9bEt6Ncao0jSRZeIHl1ZMq01LdyLSxr2zVoTsmw6QY0B8oj+86IhQhR0kIfOY83ZDJC6M3DeQvqU9zcm68PCeUPxkULG2fV8tEc8S9qoFKAqbcha0HB2N6Q+GjcxuXphPnk6jQNUj+LLiT6P/oqEEeq7T6X4DVvBO33cEam6mHGUO5r3Zt1n/fCtYMht9rXdvPfWaS23gAuGVfj6LCmK24dZNmElZQtS7kz4fBVDm0hR3NrNe1N0vcFFMBhZCxxXTsLNtvzZ8lJPcWPmThT6PMf6TVC9DEIjBzzp7zgsLHeY9ujRYwHApUslu9jt7OzIy8sjO7sOns+Wdot9h25h4eZEQ0dLzCUaDXxFLulJUZzYspk5n0aRVPvRCFWWxsWT8Th1bI3p+U2su5imZZ5Mcty78uxTp/lw9ldcVWqZRTAsZSo5xy5y38YRqYMlpmYSTNR/io/ylTy8F0PK0VBiF58iX9+/v7SL/BqZj5uvB85W5piagDLpd3aefHIHTQcEqMa5GUdLWhAEQSjBqDoOBUEQBO1EkhYEQTBiIkkLgiAYMYMnaW9vbxo2bGjoMARBEIySwZO0IAiCoJtI0oIgCEZMJGlBEAQjJpK0IAiCERNJWhAEwYiJJC0IgmDEjOPNLMIT5fWXRjLYEyCBvZ+e4mtDB4RmTJoqiK91N37s417m41uHdzD9ip4D/Beq1jEvT+HvI/NPVqz/i1+1zmTNvDcG0s4a5Jf2M+pYZhVjrfvvrGhJ1wFXtxAWB39JaNAIQ4ciCMJjRrSk64Cnlz9eDhZQ9n0GT7ZcOem6prm0YvuoNsjKaRUVtm6q0iLS5etdO4pbR4XbrmihK6d4sajFXNxCM7jC+HOj+HrNRfbqnLEwZsNc0VTrmBtaed/ZWiJa0kKdi0lXJ1SlggzDhvLvdDdLdVzNZao3HulkiZ0loFBQBw8kNhIK5IqK5yrNkN9ZkaQF4d+moIDK5SFTVQZ4KOfJeff3QzLULyvISK/Z1VddeSLLHaMHbmGAWw6Xf5jE0nstGNJlDAObN8LCFFA+IPaPzSy6ep6cMkva0KXVNF5p60kDS/W7FhUPiL28l00Xj3CzaL7OzB4VQlurUou7BRE6KajkZ1kRrNr+afGbTJovIrS7Z9nPS6xXHXuqxiT1cjl/rWX8bxG0bBzC6938cbUACpTcTzjJpkNbCC/QfhxW5Y/hvV5daGJnofrDzbnN5VNbWPV3pJbjUDOKPPX70h5kcUHP6y4ks3Zmap+naedqh8QMKFAgv3OLg0cusl3bOwnqlCnPBTzNqA6eOFupX0WiyCQl5ho/nowhrMZvPFGgVABSc+ysgSrnoqrGV6psIrXkzf7d6N3YDokJIL/NhV9+Z1GM/t4UYOvkyZyg1ng7WKu2UZCPsorv86rKm92r8511H7GYFSP9kWWcZmXIRxyu5u/1iUzSKhbYNujN7N5jaGuj8bHEBq9uIcxTzmPOjdsaE3wZHTSHAZ6lXoQrtcGr4xjmNXJi0f5QjURtGBZWTejTbSSvt9TYKRMJtp69mdpXyZyw0FJvt7GgUdv/Y1VjXyw0r6ssGtG279tM3z+djxL1m6b/+DWMF7V3veuFrGErvhjeBlvN/TGRInP1I/hVZ7y/DWORod5lYWLN9BF9eM6l1LvipNY4N+/Em95eNP/hKCtqFF8u2Q8BqRSZBbqTtKONqhyS8aC45l+j+Cxx8/FkRVBXvJ/S+FjWiHaDevNeaBhLkmuyXyq9nwtiSge7kh+amCKp4PV7NVH176w/I/r4IzMFHLsw4i1/Di+LqNa2n+AkDV5dx4AJ5MQdYevRXZzI8+L1/jPo4ybBq+1gWt5Yy1X1vE38Q1QJWpHK5ZNb+DImggcmjejQeASju/vTwC2IKf7hTIuIBs6wdPuZou10efZLpraygMQwRuwPrd2dcu/N6yZAVhyHf1nLd3fv07jlHGZ380Ti2Z4hVqGsziq5SAMfXyjI4eaJtXwaFYHSajDTBw6jpY0FLVsPhsRajlmfTBx5b7AqQctjfufrsDiO/AO2Mjteeb4bQT52tBv8NIPXXWRvQcWr07fegc+pEuA/KVw4fJavo7NJLDDF29WNKQO64m3lzHN9mnBy880aXGUUoCyzb84sndqLZtkXWfR1lGrdZlCqyVHD+OxoN6gr8JCUS7+z7rcULmDHvFeDaGdrR7sOzrCvZoUVWdNOvNnBDgoekhj+K9vC0/jjH5A9JaFz50CmtHOs0fqN0ZNdkzaB+5c3MjVsCycUOVAQyddn1Zf3to0IKJqxN6/4OwE5XD08j6UxETwAKLhNeMynzDkaiRJo0Ox5WhpkRzSYAPfP81XoPL6+e5sccrh69SBXswCccNX2VNiCB1z+cTr/F6Xar5ysvay4HKeaZt+ILnUWvBbWbZg+YyQ/avmv7BhbcAtoRWsZcOcsH/6oStAA9+UZfPVjGEeSAZk3XXzrcifUnvLkxTbWQDZX9h1l0Y1sEgsA8rmVFMf07WdJKQAcm/Ni2eHXVZBNygMAa+wKew49XfGWAvaNeb5Ub6LyH4Ue43vIrSP7ePNYChcUgCKDFecSAJA0cOKZmuwW9Xmzsw8SIOXcQab8pkrQAPJ/lBy5Z0zDpyIIPRyBPB9IO03oF9VrRcMTnqSVN0OZ8cfJkjXX1NvchZJHxr6FqrabfZPftFz658TFqUoI9pqJ3UByI9n2/f84UaIldYakB+p/mpZdJOfaLpbeLblfOWn39V6LrgvPuzcCIDEyhutlpir5804mIMXNzQBj5XzccDMB0m/wY5yW6fIYLiYBWNLAo75+tqn+fT/n0whJQT5gR+Pm6nVby5ACCnmu3uJLOb2P6VdK1p7lqRnIAUygRhUJE2e8HQFuc+X8w2qvJj2r+stWRULoHIJf6E//MdWvR8MTXu5Q/qMtEYUy58tSl/eOTtgCWPrz5qQtvFkn0VVTnpIMLZfx2/aPYZuuZR5VY0xSXanEOOliljg7qP7l1mskP/aqg/iqoLWdehRwllxnKeNaWiZB7tZYPiUFqp9MEjKywdNS/ZM13X2sUUaGE9W4A6193Wn9+02uPCVFAkUjQfQRnzxHS+dg8l+M+vSvau9LkQZW2AFkpRP1T/VXk6FUAHo6CdaBJ7olXWlaWp+CMTJR9fQbKZlp3X2RFI9UZ2pnJ2uwdsbNWsGtv29y/u+H4NiY5zUuJFJSM+s8vhp5VNkhhuXJJCO14rmMwRPdkq60tPvk4ImF1mFxdUkK9Qy28cdAJokZ0M7aOJ+f8UdGNmAHsvq0BrSF19xRlT2zM2s2Di/jn+I05tbUFeeCFP6Ihr3/xDK6lR/NWtenNeYGi69a8kAJYGmDD5S5umpmUbliyq/H9vPrMT3HVouMuN1hRFKjSVICVl48Y1v1xZV56ktAqQWuFc2sUKq+iGYSSg4y8mV00BjaWmpdSlA7f0c1CNrdu5Hx3WIcl6y6acSxGS9q68C1b8LTrgAZ/H2rCoN4tbiSqaozSyXmDPBtBCm3+aUAiEvilgKcm3rR5ikpoEBZWDqow/iqJS2VFAWq2nSpTmNZw1bM6eJc9zGVw33EYnbuO8jBfTtZ8apftdcjknSl/MLZmBzAhg5DP+UDv+40kVqoJpk0oknDwUzp9SmfdOysdenw1FRV4m3QhXef7o5X6XFPmu6mqm/pbUKfdp2xASyk3Zk4SMsYbaGMK5djSCkAiW8P1r3ow2AnCYXnVVuZJYMDWrF6fCdeN0RwmbfUHW/WtBvWi3lNLVUddZjSzsuP1cM74GwCypgItunpARGSRk/T2RVS4pJIBCCF87EKsG/Kcy4mwEOyC8dRGyC+qknhz3hVPbl176cJtjUFE1N6B3Ri3fA2VK79ZM30UUP5ccYrfPOcda2eyPt2VY+TNpXhN2wiw6u5HlHuqJQcDvwaSquG42lr40TLHuP5sMf4snPp6huJ+YXLHX3pYCPBteN4FnfUWLZ0CSVrL+Fx7RngKaFBhxC+7BBSPO/9CK7m+tNSvFxdN3kMK4404qM+7sh8OvG6j7aEnFCqY8ydFTO64V1mPncGzxjJ4MJVl3qQk/ZHbYJ3n5H82Ef9Q4mOz3y+2neKZmO74W3uTLsXBtGu9MLpf/LVT7fVCbUGUjOQ447M3g5bMrkQU9zJt/N6Ai839cG5IZS806UO46vmMd9+KoLnvDvgbOvHqPF+jCqcUJDBH99G0mBkVy3r1ODiQTsXVaehbTMP2v2q65GmNZf8QA6FpwGpO817AtUos4iWdGUVnGTpd0v4+lw0d7M1erALlCjv3+bquVBWnT2jY+EzrNi1lsM3U9HW+V3SbbYdWsvhuAfFNyTkPyDp4g989P2nxBrgKvNxc/3KKd7YcooLcRklbxX+J5OUmD/Zu+M03xsqOHkC0zf8RNi1NOSa9yXL07j+WxjzNv/FEX3fZJMZy0nNO/1uxHKrqGT9gETNaYaIryrSbzJ96+/cSlfvQEE+8qQ/2b4xjCV3KhFYcjwXkh8C+dy/Hl9rjyUA2P/fUCKKSvcKlNW8K77eggULHgFs2rSpxARvb29yc3O5c6d275+tq+0IgiDUtQmrDzLUG5BHsCZ4DvursOy4ceMAUe4QBEHQO5lbF/q+NIK+6tpLSvjuKiVoTSJJC4Ig6FFR61lNHvUtS5eFV3t9IkkLgiDoW74Cedotft+zmfU/RVCTUeUiSQuCIOjRhin92aDH9YnRHYIgCEZMJGlBEAQjJpK0IAiCERNJWhAEwYgZvOPw1q1bhg5BEATBaImWtCAIghETSVoQBMGIiSQtCIJgxESSFgRBMGIiSQuCIBgxkaQFQRCMmMGH4BWbwKqDQ/EByM0g4fw+1vzvW42HZguCIDx5jLMlbW6He7cxLPzvBNwNHYsgCIIBGVGS3sDU/v3pP2YqKw8noACkTboyIsDQcQmCIBiOESVptbQYDq/8iBO3AZxxb2/ogARBEAzH+JI0AAlcThDFaEEQBCNN0oIgCAKIJC0IgmDUjD5JW9r5GzoEQRAEgzHaJH0iSjXCw7nLZN7p54OdoQMSpDRtUwAAAwlJREFUBEEwAKNN0ny3iA2nEpCbutPn7VVsP3iQg6snGDoqQRCEOmW8SRoF6RkKFIYOQxAEwYCM6LbwUjq9y1uDfLBTJHB41UesP5yAGJQnCMKTxmiTtH93VR065dhHrDycYOhwBEEQDMJoyx125pYAZOeKBC0IwpPLaJO0IAiCIJK0IAiCURNJWhAEwYiJJC0IgmDEjDRJy/B1kqn+WWDYSARBEAzJ+IbgOfrQZ/QsBnoDpBBz1NABCYIgGI4RJWmNdxyqKaIOsT7WYAEJgiAYnBElaQ25GSSc/4HPFu8WdxkKgvBEM6IkvYGp/TcYOghBEASjYqQdh4IgCAKIJC0IgmDURJIWBEEwYjpr0rdu3arLOARBEAQtREtaEATBiIkkLQiCYMREkhYEQTBiIkkLgiAYMZGkBUEQjJhI0oIgCEaswtvCe8zfyaxOMshXIE+7xfHNi1hzIqMuYhMEQXjiVb4lbSpF5uzHwFmr+aBnLUYkCIIgFKkwSZ9YGEz//sG8uWgLERkAdrQfOLz2IxMEQRAq25KWk3DmW+bsikABSBs2p0ethiUIgiBAVTsO98SQUEuBCILw/+3dIUtDURjG8afsgtwZbIatmJbEsqDRfqOwdMMVDH4Cg4a1BUGLhkXThaG25aWB3DSD2JcG4oIO4QhimLsMruCOeOYJ/98neNLD4eU9vEAR2x0A4DFKGgA89ruSXlnV+h8HAQAUWZZ0puFIUlBT1GpopxI6CQUAmLIs6YEuzlI9jqW1zVjH7Y663Y6a7E0DgBPW446JedXLhBveALAMltfCQ8UHseqVQOP7K52fpsqe3AQDAFiXdKStjUB6G+j6KFXmJhMA4IvluKOsUiDJGD07iQMAmMeeNAB4jJIGAI9R0gDgMUoaADxmV9K71el38I93GSdxAADzFlzBC1XdjnS4X1coyQwf1HcaCwAg2dw4zI3Uv71xGAkAMLP4Z5bZIdr2iS7vHCYCAOR+LOlec0+9ZSQBABSw3QEAHqOkAcBj+bgjSZL/zAEA+AYvaQDw2Cd1aFsF0m2wiAAAAABJRU5ErkJggg==;" vertex="1" parent="1">
          <mxGeometry x="480" y="510" width="230" height="126.78" as="geometry" />
        </mxCell>
        <mxCell id="It72JjRiq_UUshijpsOf-14" value="&lt;span style=&quot;font-size: 16px&quot;&gt;&lt;b&gt;Service&lt;/b&gt;&lt;/span&gt;" style="text;html=1;align=center;verticalAlign=middle;resizable=0;points=[];autosize=1;strokeColor=none;fillColor=none;" vertex="1" parent="1">
          <mxGeometry x="490" y="480" width="70" height="20" as="geometry" />
        </mxCell>
        <mxCell id="It72JjRiq_UUshijpsOf-17" style="edgeStyle=orthogonalEdgeStyle;rounded=0;orthogonalLoop=1;jettySize=auto;html=1;exitX=0;exitY=0.5;exitDx=0;exitDy=0;fontSize=10;" edge="1" parent="1" source="It72JjRiq_UUshijpsOf-15" target="It72JjRiq_UUshijpsOf-1">
          <mxGeometry relative="1" as="geometry" />
        </mxCell>
        <mxCell id="It72JjRiq_UUshijpsOf-15" value="Response" style="whiteSpace=wrap;html=1;verticalAlign=top;" vertex="1" parent="1">
          <mxGeometry x="240" y="480" width="80" height="30" as="geometry" />
        </mxCell>
        <mxCell id="It72JjRiq_UUshijpsOf-18" value="getHello&amp;nbsp; 요청" style="text;html=1;align=center;verticalAlign=middle;resizable=0;points=[];autosize=1;strokeColor=none;fillColor=none;fontSize=10;" vertex="1" parent="1">
          <mxGeometry x="750" y="440" width="80" height="20" as="geometry" />
        </mxCell>
        <mxCell id="It72JjRiq_UUshijpsOf-19" value="&#39;Hello World!&#39; 전달" style="text;html=1;align=center;verticalAlign=middle;resizable=0;points=[];autosize=1;strokeColor=none;fillColor=none;fontSize=10;" vertex="1" parent="1">
          <mxGeometry x="595" y="440" width="100" height="20" as="geometry" />
        </mxCell>
        <mxCell id="It72JjRiq_UUshijpsOf-20" value="Response 측에&lt;br&gt;&#39;Hello World&#39; 전달" style="text;html=1;align=center;verticalAlign=middle;resizable=0;points=[];autosize=1;strokeColor=none;fillColor=none;fontSize=10;" vertex="1" parent="1">
          <mxGeometry x="355" y="395" width="90" height="30" as="geometry" />
        </mxCell>
      </root>
    </mxGraphModel>
  </diagram>
</mxfile>
